<svg width="1320" height="1406" xmlns="http://www.w3.org/2000/svg"><g fill="none" fill-rule="evenodd"><path fill="#6358A1" d="M0 0h1320v1406H0z"/><path d="M20 20h13.417v1366H20V20zm273.71 0h13.418v1366H293.71V20zm-136.855 0h13.418v1366h-13.418V20zm273.711 0h13.417v1366h-13.417V20zM88.428 20h13.417v1366H88.428V20zm273.71 0h13.418v1366h-13.418V20zm-136.855 0H238.7v1366h-13.417V20zm273.71 0h13.418v1366h-13.417V20zm101.971 0h13.418v1366h-13.418V20zM53.543 20H66.96v1366H53.543V20zm275.052 0h13.418v1366h-13.418V20zM191.74 20h13.417v1366H191.74V20zm273.71 0h13.418v1366H465.45V20zm101.971 0h13.418v1366H567.42V20zm-444.109 0h13.418v1366h-13.418V20zm273.711 0h13.417v1366h-13.417V20zm-138.197 0h13.417v1366h-13.417V20zm275.052 0h13.418v1366h-13.418V20zm103.313 0h13.417v1366h-13.417V20zm33.543 0h13.417v1366h-13.417V20zm273.71 0h13.418v1366h-13.418V20zM807.59 20h13.417v1366H807.59V20zm273.71 0h13.418v1366H1081.3V20zm-342.138 0h13.418v1366h-13.42V20zm273.711 0h13.417v1366h-13.417V20zm-136.855 0h13.417v1366h-13.417V20zm273.71 0h13.418v1366h-13.418V20zm101.971 0h13.417v1366h-13.417V20zm-547.421 0h13.417v1366h-13.417V20zm275.052 0h13.417v1366H979.33V20zm-138.197 0h13.417v1366h-13.417V20zm275.052 0h13.418v1366h-13.418V20zm101.971 0h13.417v1366h-13.417V20zm-444.109 0h13.417v1366h-13.417V20zm272.37 0h13.416v1366h-13.417V20zM909.56 20h13.417v1366H909.56V20zm275.052 0h13.417v1366h-13.417V20zm101.97 0H1300v1366h-13.417V20z" fill="#4A3E8C" opacity=".601"/></g></svg>