<svg width="928" height="730" xmlns="http://www.w3.org/2000/svg"><g fill="none" fill-rule="evenodd"><path fill="#6358A1" d="M0 0h928v730H0z"/><path d="M20 20h17.94v690H20V20zm365.964 0h17.939v690h-17.94V20zm-182.982 0h17.94v690h-17.94V20zm365.963 0h17.94v690h-17.94V20zm-457.454 0h17.94v690h-17.94V20zm365.964 0h17.939v690h-17.94V20zm-182.982 0h17.94v690h-17.94V20zm365.963 0h17.94v690h-17.94V20zm136.34 0h17.94v690h-17.94V20zM64.848 20h17.94v690h-17.94V20zm367.758 0h17.94v690h-17.94V20zm-182.982 0h17.94v690h-17.94V20zm365.964 0h17.94v690h-17.94V20zm136.34 0h17.939v690h-17.94V20zm-593.795 0h17.94v690h-17.94V20zm365.964 0h17.94v690h-17.94V20zm-184.776 0h17.94v690h-17.94V20zm367.758 0h17.94v690h-17.94V20zm138.133 0h17.94v690h-17.94V20zm44.849 0H908v690h-17.94V20z" fill="#4A3E8C" opacity=".601"/></g></svg>