<svg width="1011" height="522" xmlns="http://www.w3.org/2000/svg"><g fill="none" fill-rule="evenodd"><path stroke="#302668" stroke-width="10" d="M5.44 5.123h1000v511H5.44z"/><path d="M30.44 30.123h9.96v461h-9.96v-461zm203.145 0h9.959v461h-9.959v-461zm-101.572 0h9.958v461h-9.958v-461zm203.145 0h9.958v461h-9.958v-461zm-253.931 0h9.958v461h-9.958v-461zm203.145 0h9.958v461h-9.958v-461zm-101.573 0h9.958v461H182.8v-461zm203.145 0h9.958v461h-9.958v-461zm75.681 0h9.958v461h-9.958v-461zm-406.289 0h9.958v461h-9.958v-461zm204.14 0h9.958v461h-9.958v-461zm-101.572 0h9.958v461h-9.958v-461zm203.145 0h9.958v461h-9.958v-461zm75.681 0h9.958v461h-9.958v-461zm-329.612 0h9.958v461h-9.958v-461zm203.145 0h9.958v461h-9.958v-461zm-102.569 0h9.959v461h-9.959v-461zm204.14 0h9.959v461h-9.958v-461zm76.678 0h9.958v461h-9.958v-461zm24.895 0h9.958v461h-9.958v-461zm203.145 0h9.958v461h-9.958v-461zm-101.572 0h9.958v461h-9.958v-461zm203.144 0h9.958v461h-9.958v-461zm-253.93 0h9.957v461h-9.958v-461zm203.144 0h9.958v461h-9.958v-461zm-101.572 0h9.958v461h-9.958v-461zm203.144 0h9.958v461h-9.958v-461zm75.682 0h9.958v461h-9.958v-461zm-406.29 0h9.958v461h-9.958v-461zm204.14 0h9.959v461h-9.958v-461zm-102.567 0h9.958v461h-9.958v-461zm204.14 0h9.958v461h-9.958v-461zm75.682 0h9.958v461h-9.958v-461zm-329.613 0h9.958v461h-9.958v-461zm202.15 0h9.957v461h-9.958v-461zm-101.573 0h9.958v461h-9.958v-461zm204.14 0h9.958v461h-9.958v-461zm75.682 0h9.958v461h-9.958v-461z" fill="#302668"/></g></svg>