<svg xmlns="http://www.w3.org/2000/svg" viewBox="0 0 88 19.5"><path d="M84.3 12.4h-4.6c-.9 0-1.1-.5-1.1-.8v-.5c0-.5.3-.9 1.1-.9h4.6v2.2zm-8.8-7.3V7h7.7c.6 0 1.1.2 1.1.9v.3h-7.4c-1.3 0-2 .9-2 1.9v2.2c0 .9.7 2 2 2H88V7c0-1.3-1.1-1.9-2.4-1.9H75.5zm-5.9 7.3h-4.5V5.1h-3.9v7.2h-4.5V5.1h-3.9v9.3h20.6V5.1h-3.9v7.3h.1zm-37.5-1c0 .7-.5 1-1.1 1h-3.7V7H31c.6 0 1.1.3 1.1 1v3.4zm-8.6 1h-3.7c-.6 0-1.1-.3-1.1-1V8c0-.7.5-1 1.1-1h3.7v5.4zm3.8-7.3V0h-3.9v5.1h-6.2c-1.3 0-2.4.6-2.4 1.9v5.4c0 1.3 1.1 2 2.4 2h6.2v5.1h3.9v-5.1h6.2c1.3 0 2.4-.7 2.4-2V7c0-1.3-1.1-1.9-2.4-1.9h-6.2zm14.2 6.1v-6h-3.9v9.3h3.9l5.6-6.1v6.1H51V5.1h-4l-5.5 6.1zM9.4 12.4H4.8c-.9 0-1.1-.5-1.1-.8v-.5c0-.5.3-.9 1.1-.9h4.6v2.2zM.6 5.1V7h7.7c.6 0 1.1.2 1.1.9v.3H2c-1.3 0-2 .9-2 1.9v2.2c0 .9.7 2 2 2h11.1V6.9C13.1 5.6 12 5 10.7 5H.6v.1z" fill-rule="evenodd" clip-rule="evenodd" fill="#007cba"/></svg>