<svg width="1550" height="163" xmlns="http://www.w3.org/2000/svg"><path d="M1411.798 6.186v151.666h70.701v-32.058h-38.662V6.186zM1369.27 157.85h32.04L1372.331 6.186h-82.885l-28.978 151.666h32.04l6.851-35.86h63.058l6.852 35.86zm-64.586-63.728l11.477-60.068h29.455l11.477 60.068h-52.409zM936.145 54.077l-.09.002v11.178c-8.974 0-16.275-7.3-16.275-16.275 0-8.972 7.301-16.273 16.275-16.273 8.974 0 16.274 7.3 16.274 16.273h30.71C983.038 23.078 961.96 2 936.054 2s-46.983 21.078-46.983 46.983c0 25.906 21.077 46.984 46.983 46.984v-8.361c.03 0 .06-.005.09-.005 11.28 0 20.456 9.177 20.456 20.457 0 11.28-9.176 20.456-20.456 20.456-11.279 0-20.457-9.177-20.457-20.457 0-.072.01-.141.012-.213h-33.53c0 .072-.006.141-.006.213 0 29.765 24.216 53.98 53.981 53.98 29.764 0 53.98-24.215 53.98-53.98 0-29.764-24.216-53.98-53.98-53.98M735.486 38.243V6.185h-67.111v60.676h-19.606v27.868h19.606v63.122h32.04V94.729h35.071V66.861h-35.071V38.243zM569.251 6.185H481.71v32.058h27.751v119.608h32.04V38.243h27.751zm511.523 0h-87.541v32.058h27.75v119.608h32.041V38.243h27.75zM871.306 38.243V6.185H751.694v151.666h119.612v-32.057h-87.555V94.729h87.555V66.861h-87.555V38.243zM71.941 157.851h32.04V58.775h-32.04zM1163.167 38.243V6.185h-69.404v32.058h18.682v87.551h-18.682v32.057h69.404v-32.057h-18.682V38.243zM293.02 162.037c-44.122 0-80.019-35.896-80.019-80.02C213.001 37.896 248.898 2 293.021 2c44.121 0 80.018 35.895 80.018 80.017 0 44.124-35.897 80.02-80.019 80.02m0-123.794c-24.138 0-43.775 19.637-43.775 43.774 0 24.14 19.637 43.776 43.775 43.776 24.138 0 43.775-19.637 43.775-43.776 0-24.136-19.637-43.773-43.775-43.773M162.66 6.185h-42.398v151.666h32.058V94.98h10.34c24.52 0 44.396-19.877 44.396-44.397S187.18 6.185 162.66 6.185m-1.927 60.675h-8.412V38.213h8.412c7.911 0 14.324 6.413 14.324 14.324 0 7.91-6.413 14.323-14.324 14.323M1242.52 6.185l-18.73 107.744-18.733-107.744h-32.04l29.98 151.666h41.584l29.977-151.666zM467.247 125.794V91.443h-22.024c15.878-6.764 27.011-22.511 27.011-40.86 0-24.52-19.877-44.397-44.397-44.397H385.44v151.666h32.057V94.98h17.692v62.872h52.38v-32.058h-20.322zM425.911 66.86h-8.414V38.214h8.414c7.91 0 14.323 6.413 14.323 14.323s-6.413 14.324-14.323 14.324zM108.922 23.961c0 11.576-9.384 20.961-20.961 20.961C76.384 44.922 67 35.537 67 23.962 67 12.383 76.384 3 87.961 3c11.577 0 20.961 9.384 20.961 20.961" fill="#FFF" fill-rule="evenodd"/></svg>