<svg xmlns="http://www.w3.org/2000/svg" width="445" height="75"><g fill="none" fill-rule="evenodd"><path fill="#000" d="M155.13 23a.46.46 0 0 0-.41.42V73.1a.44.44 0 0 0 .41.41h11.8a.45.45 0 0 0 .42-.41V40.9c0-5.53 4.35-8.08 9.86-8.08s10 2.55 10 8.08v32.26a.44.44 0 0 0 .42.41h11.8a.44.44 0 0 0 .41-.41V40.9c0-5.53 4.35-8.08 9.87-8.08s9.87 2.55 9.87 8.08v32.26a.44.44 0 0 0 .42.41h12.1a.44.44 0 0 0 .42-.41V41.41c0-13.26-8.49-19.4-18.89-19.4s-16.13 5.94-17.4 7.53C194.93 27.51 190.8 22 181 22a18 18 0 0 0-12.52 4.54 6.48 6.48 0 0 0-1.37 2h-.2c.26-.98.402-1.987.42-3v-2.07a.47.47 0 0 0-.42-.42h-11.8l.02-.05zm161.39 10.87h13.17a.44.44 0 0 0 .41-.4v-10a.46.46 0 0 0-.41-.42h-13.17V6a.44.44 0 0 0-.41-.43h-11.79a.46.46 0 0 0-.44.43v17h-8.48a.47.47 0 0 0-.42.42v10c.02.22.2.39.42.4h8.49v27c0 6.05 2.77 13.79 14.43 13.79A43.63 43.63 0 0 0 330 73.15a.44.44 0 0 0 .32-.43l-1.06-9.43a.35.35 0 0 0-.32-.3 24.58 24.58 0 0 1-7.86 1.16c-3.08 0-4.14-1.49-4.57-4.15V33.87h.01zm101.9 40.76c16.66 0 26.43-11.65 26.43-26.32S435.08 22 418.42 22 392.1 33.67 392.1 48.31c0 14.64 9.66 26.32 26.32 26.32zm0-10.09c-9.55 0-13.58-7.62-13.58-16.23s4-16.23 13.58-16.23 13.68 7.64 13.68 16.23-4.13 16.23-13.68 16.23zM288.55 52a.48.48 0 0 0 .43-.41v-5.31C289 33.67 282.93 22 267.32 22c-16.66 0-25.89 11.67-25.89 26.31 0 14.64 7.52 26.32 27.27 26.32 8.06 0 15.07-1.16 17.19-2a.45.45 0 0 0 .32-.44l-1.28-9.63a.36.36 0 0 0-.41-.33 43.31 43.31 0 0 1-14.44 2.33c-11.14 0-16-5.19-16-12.51h34.49l-.02-.05zm-21.54-20c6.68 0 10.29 3.92 10.29 9.87h-23.24c0-5.84 4.77-9.87 12.95-9.87zm117.12 20a.49.49 0 0 0 .43-.41v-5.31c0-12.64-6.07-24.31-21.67-24.31C346.24 22 337 33.67 337 48.31s7.53 26.32 27.27 26.32c8.07 0 15.08-1.16 17.19-2a.46.46 0 0 0 .33-.44l-1.28-9.63a.37.37 0 0 0-.41-.33 43.53 43.53 0 0 1-14.45 2.33c-11.14 0-16-5.19-16-12.51h34.5l-.02-.05zm-21.55-20c6.69 0 10.29 3.92 10.29 9.87h-23.24c0-5.76 4.77-9.79 12.95-9.79V32z"/><path fill="#009FFF" d="M80.85 4.44v.04h11.66a.45.45 0 0 1 .42.45v12.36a.44.44 0 0 1-.42.41H80.85a.44.44 0 0 1-.42-.41V4.89a.45.45 0 0 1 .42-.45zm0 18.56v.05h11.66a.45.45 0 0 1 .42.42V73.1a.43.43 0 0 1-.42.41H80.85a.43.43 0 0 1-.42-.41V23.42a.45.45 0 0 1 .42-.42zm43.08 51.63l.06-.01a114.3 114.3 0 0 1-18.67-1.48.28.28 0 0 1-.33-.31l1.06-10.19a.33.33 0 0 1 .32-.32 61.07 61.07 0 0 0 16.43 2.21c8.17 0 10.3-1.37 10.3-4.65 0-4.46-4.04-4.78-14.22-7.34-9.8-2.42-15-6.23-15-15.7 0-9.65 6.79-14.84 20.38-14.84a89.44 89.44 0 0 1 17.75 1.7.43.43 0 0 1 .32.41l-1 10.1a.48.48 0 0 1-.53.29 48.93 48.93 0 0 0-15.93-2.42c-6.15 0-9.33.55-9.33 4.55 0 3.09 4.03 3.53 11.68 5.53 11.05 2.86 18.36 5.62 18.36 16.68 0 10.38-5.65 15.79-21.65 15.79zM37.44 32.19v-.03h30.34c.23.01.415.19.43.42v36a.74.74 0 0 1-.43.54c-7 3.5-15.36 5.5-30 5.5C15.5 74.62.64 59.24.64 38.01.64 16.78 15.48.35 42.64.35a99.79 99.79 0 0 1 21.54 2.11.48.48 0 0 1 .44.54l-1.1 11.56a.57.57 0 0 1-.65.34c-5.2-1.51-11.03-2.67-21.54-2.67-18.36 0-27.48 10.95-27.48 25.8 0 14.85 9.12 24.31 24.83 24.31a75.68 75.68 0 0 0 16.76-1.6V43.87h-18a.44.44 0 0 1-.41-.42V32.61a.44.44 0 0 1 .41-.42z"/></g></svg>