<svg width="30" height="30" xmlns="http://www.w3.org/2000/svg" xmlns:xlink="http://www.w3.org/1999/xlink"><defs><circle id="a" cx="15" cy="15" r="15"/></defs><g fill="none" fill-rule="evenodd"><mask id="b" fill="#fff"><use xlink:href="#a"/></mask><circle stroke="#FFF" stroke-width="2" cx="15" cy="15" r="16"/><path d="M22.5 21.875H21c-1.657 0-3-1.455-3-3.25v-1.044c.664-.855 1.14-1.865 1.436-2.934.03-.18.19-.269.297-.392.574-.622.687-1.672.256-2.42-.058-.113-.164-.212-.158-.352 0-.953.004-1.907-.001-2.86-.024-1.15-.327-2.345-1.071-3.197-.6-.687-1.425-1.097-2.276-1.272a6.991 6.991 0 0 0-3.266.082c-.923.253-1.79.838-2.326 1.706-.474.755-.682 1.671-.718 2.574-.013.97-.003 1.942-.005 2.914.02.194-.132.326-.201.487-.406.797-.227 1.884.425 2.464.165.123.196.349.256.543A8.07 8.07 0 0 0 12 17.546v1.079c0 1.795-1.343 3.25-3 3.25H7.5s-2.719.812-4.5 4.875v1.625C3 29.273 3.67 30 4.5 30h21c.83 0 1.5-.727 1.5-1.625V26.75c-1.781-4.062-4.5-4.875-4.5-4.875z" fill="#FFF" fill-rule="nonzero" mask="url(#b)"/></g></svg>