<?xml version="1.0" encoding="UTF-8"?>
<svg width="195px" height="71px" viewBox="0 0 195 71" version="1.1" xmlns="http://www.w3.org/2000/svg" xmlns:xlink="http://www.w3.org/1999/xlink">
    <!-- Generator: Sketch 51.2 (57519) - http://www.bohemiancoding.com/sketch -->
    <title>Slice</title>
    <desc>Created with Sketch.</desc>
    <defs></defs>
    <g id="НСК" stroke="none" stroke-width="1" fill="none" fill-rule="evenodd">
        <g id="Group-10" fill-rule="nonzero">
            <g id="Group-8">
                <g id="Ресурс-1" transform="translate(60.000000, 0.000000)">
                    <rect id="Rectangle-6" fill="#FFFFFF" x="10" y="14" width="51" height="31"></rect>
                    <path d="M13.4568884,61.1933702 L13.4568884,65.0258629 L9.06815948,65.0258629 L9.06815948,61.1933702 L7.29166667,61.1933702 L7.29166667,69.8232044 L9.06849073,69.8232044 L9.06849073,65.7997348 L13.4568884,65.7997348 L13.4549009,68.8948903 C13.4549009,69.090185 13.4923322,69.2502735 13.5675259,69.3741594 C13.6382723,69.4893604 13.7353548,69.5860189 13.8507445,69.6561411 C13.9622957,69.7217819 14.0847068,69.7667821 14.212138,69.7889946 C14.3247009,69.8098973 14.4388545,69.8210097 14.5533254,69.822208 L15.234375,69.822208 L15.234375,61.1933702 L13.4568884,61.1933702 Z" id="Shape" fill="#E0481D"></path>
                    <path d="M48.3072917,69.8232044 L48.3072917,61.1933702 L46.5647558,61.1933702 L43.0776915,67.5849543 L39.524207,61.1933702 L37.7604167,61.1933702 L37.7604167,69.8232044 L38.6693781,69.8232044 L38.6693781,63.1303749 L42.4114962,69.8232044 L42.8764381,69.8232044 L46.5209184,63.1825199 L46.5209184,68.8952224 C46.5209184,69.0905171 46.5614348,69.2506056 46.6378181,69.3734952 C46.7079876,69.4888849 46.804642,69.5858903 46.9197722,69.6564732 C47.0316379,69.7220553 47.1543528,69.7670514 47.2820948,69.7893268 C47.3953347,69.8098556 47.5100809,69.8209647 47.6251555,69.8225402 L48.3072917,69.8232044 Z" id="Shape" fill="#E0481D"></path>
                    <path d="M59.5052083,69.9529553 L55.0670393,61.0626151 L54.5460699,61.0626151 L50,69.9539595 L51.0379669,69.9539595 L52.4502771,67.1876742 L55.6747265,67.1876742 L55.2288906,66.3006151 L52.9030637,66.3006151 L54.3981199,63.3776719 L57.3296483,69.2617187 C57.4451618,69.5030657 57.589471,69.6814817 57.757942,69.790272 C57.926413,69.8990622 58.1518134,69.9529553 58.4199107,69.9529553 L59.5052083,69.9529553 Z" id="Shape" fill="#E0481D"></path>
                    <path d="M68.6719626,61.1933702 C68.6170452,61.1936774 68.5622331,61.1982296 68.5080136,61.2069861 C68.4449325,61.2186735 68.3843228,61.2411399 68.3288289,61.2734053 C68.2692078,61.3096961 68.2190332,61.3596634 68.182434,61.4191954 C68.1404352,61.4939497 68.1198066,61.578868 68.1228161,61.6646144 L68.1228161,67.2295466 L62.2083962,61.1940344 L61.0677083,61.1940344 L61.0677083,69.822884 L62.1043962,69.822884 L62.1043962,63.3171239 L68.105262,69.60835 C68.35102,69.8408172 68.6891855,69.822884 69.0174148,69.822884 L69.140625,69.822884 L69.140625,61.1933702 L68.6719626,61.1933702 Z" id="Shape" fill="#E0481D"></path>
                    <path d="M21.9944339,61.0626151 L21.4756975,61.0626151 L16.9270833,69.9522854 L17.9629031,69.9522854 L21.3279121,63.3758512 L22.7826223,66.3004593 L20.4468207,66.3004593 L19.9968524,67.1877188 L23.227962,67.1877188 L24.2502264,69.2635712 C24.3656114,69.5049727 24.50976,69.683429 24.6800272,69.7922439 C24.8502944,69.9010587 25.0724683,69.9539595 25.3412591,69.9539595 L26.4322917,69.9539595 L21.9944339,61.0626151 Z" id="Shape" fill="#E0481D"></path>
                    <path d="M29.8882516,61.9507523 L29.8882516,65.2197595 L30.7067511,65.2197595 C30.7067511,65.2197595 31.5189873,65.2323798 32.0460839,64.9241772 C32.5731804,64.6159745 32.9483122,64.1888747 32.9483122,63.548225 C32.9443362,62.9156042 32.5589952,62.3489661 31.9748813,62.1168097 C31.9748813,62.1168097 31.648866,61.9534092 31.0677083,61.9534092 L29.8882516,61.9507523 Z M33.4061841,69.1300806 L30.7990506,65.8776791 L29.8931962,65.8776791 L29.8931962,69.821876 L28.125,69.821876 L28.125,61.1935302 L31.3706487,61.1935302 C31.3706487,61.1935302 32.7099815,61.1722749 33.5874868,61.6196337 C34.4649921,62.0669925 34.8348497,62.695686 34.8348497,63.4927619 C34.8348497,64.2898377 34.3670886,65.2317156 32.6898734,65.7049794 L36.0677083,69.8232044 L34.7128824,69.8232044 C34.5028985,69.8173999 34.2950259,69.7793213 34.0964531,69.7102853 C33.7648339,69.5953736 33.4061841,69.1317411 33.4061841,69.1317411 L33.4061841,69.1300806 Z" id="Shape" fill="#E0481D"></path>
                    <path d="M0.520662182,69.3073419 C0.709548218,69.3849904 0.910772373,69.4251137 1.11389264,69.4256297 C1.74591746,69.4256297 2.19916493,68.9551669 2.19916493,68.3015596 C2.19916493,67.7003753 1.84839924,67.2682216 1.36217656,67.2682216 C1.06022711,67.2682216 0.81258976,67.4157453 0.521632041,67.7628796 L0.520662182,69.3073419 Z M0.262033098,65.7697974 L0.520662182,65.7697974 L0.520662182,67.4560707 C0.773472111,67.1949638 1.00559171,67.0417273 1.39353534,67.0417273 C2.03105603,67.0417273 2.47395833,67.5528516 2.47395833,68.2850934 C2.47395833,69.1423439 1.93891942,69.6924494 1.11906522,69.6924494 C0.828107505,69.6924494 0.589522175,69.6356578 0.260416667,69.4998956 L0.262033098,65.7697974 Z" id="Shape" fill="#E0481D"></path>
                    <polygon id="Shape" fill="#E0481D" points="3.32000395 71 3.04466466 71 3.92689484 69.2299854 2.86458333 67.2081031 3.14564484 67.2081031 4.06187168 68.961591 4.93333064 67.2081031 5.20833333 67.2081031"></polygon>
                    <path d="M57.1717051,40.2896957 L45.3102382,40.2896957 L45.3102382,16.4704543 L49.2248381,16.4704543 L49.2248381,36.8522415 C49.2390082,37.9588283 50.137796,38.8484324 51.2416364,38.8484324 C52.3454768,38.8484324 53.2442646,37.9588283 53.2584348,36.8522415 L53.2554433,32.7056354 L57.1717051,32.7056354 L57.1717051,40.2896957 Z M42.4622896,24.4094238 C42.4622896,25.5957871 41.424889,27.6982494 39.8835798,27.6982494 C41.424889,27.6982494 42.4622896,29.0312418 42.4622896,30.038984 L42.4622896,37.1788247 C42.4622896,38.393514 41.4847199,40.2903622 38.5496841,40.2903622 L30.7228112,40.2903622 L30.7228112,16.4704543 L38.5493517,16.4704543 C40.059416,16.4704543 42.4619572,17.7141362 42.4619572,20.3514617 L42.4622896,24.4094238 Z M27.7548684,36.1417566 C27.7548684,38.5138166 26.2118972,40.6442717 21.823304,40.6442717 C17.4347109,40.6442717 15.893734,37.8593173 15.893734,36.1417566 L15.893734,32.7056354 L19.8053423,32.7056354 L19.8083338,36.8522415 C19.8105346,37.9675804 20.7134823,38.870314 21.8259632,38.8693923 C22.9398143,38.8693923 23.8409334,37.9362976 23.8409334,36.8252484 L23.838939,16.4707875 L27.7548684,16.4707875 L27.7548684,36.1417566 Z M17.8495381,25.5841234 C19.0952522,25.5883528 20.102132,26.6033832 20.0995054,27.8523039 C20.0968788,29.1012246 19.0857386,30.1119891 17.8400179,30.1109519 C16.5942971,30.1099146 15.5848329,29.0974676 15.5842755,27.8485443 C15.5847153,27.2469623 15.8237299,26.6702437 16.248645,26.2454865 C16.6735602,25.8207292 17.2495,25.5827962 17.8495381,25.5841234 Z M21.4673105,16.4704543 L17.8495381,24.7060146 L14.232763,16.4704543 L21.4673105,16.4704543 Z M0,56.878453 L69.2708333,56.878453 L69.2708333,0 L0,0 L0,56.878453 Z M37.0043861,28.7363172 L34.6327575,28.7363172 L34.6327575,38.3338626 L37.0043861,38.3388613 C38.5493517,38.3388613 38.5493517,37.2967945 38.5493517,33.5650822 C38.5493517,29.83337 38.5493517,28.7369837 37.0043861,28.7369837 L37.0043861,28.7363172 Z M36.7717106,18.7218784 L34.6340871,18.7218784 L34.6340871,26.7198329 L36.7717106,26.7254981 C38.1950201,26.7254981 38.5506813,26.4852263 38.5506813,22.7511813 C38.5506813,19.0171363 38.1950201,18.7208787 36.7717106,18.7208787 L36.7717106,18.7218784 Z" id="Shape" fill="#E0481D"></path>
                    <path d="M71.0937571,54.9118284 C71.0916325,55.705635 71.5662108,56.4224529 72.2959427,56.7276475 C73.0256747,57.032842 73.8666474,56.8662247 74.4262664,56.305578 C74.9858855,55.7449314 75.1537864,54.9008226 74.8515875,54.16731 C74.5493886,53.4337974 73.8366875,52.9555395 73.0461971,52.9558034 C72.5289337,52.9550164 72.0325638,53.160697 71.6663724,53.5275608 C71.300181,53.8944246 71.0941918,54.3923928 71.0937571,54.9118284 Z M71.4612135,54.9118284 C71.4604171,54.2678915 71.8460806,53.686916 72.4382849,53.4399376 C73.0304892,53.1929593 73.7125415,53.3286447 74.1662519,53.7836942 C74.6199623,54.2387437 74.755928,54.9234906 74.5107184,55.5184878 C74.2655089,56.1134851 73.6874422,56.5014895 73.0461971,56.50149 C72.625801,56.5027176 72.2222424,56.3356934 71.9247915,56.0373647 C71.6273407,55.739036 71.4605135,55.3339908 71.4612135,54.9118284 Z M72.2991452,56.0178375 L72.6685701,56.0178375 L72.6685701,55.0673352 L72.9910787,55.0673352 L73.5455441,56.0178375 L73.968447,56.0178375 L73.3575508,55.050862 C73.7000726,55.0142916 73.9520427,54.8554902 73.9520427,54.4538741 C73.9520427,53.9880126 73.6600461,53.8051604 73.1160794,53.8051604 L72.2991452,53.8051604 L72.2991452,56.0178375 Z M72.6666016,54.7606047 L72.6666016,54.1099142 L73.1160794,54.1099142 C73.331632,54.1099142 73.5809773,54.1586748 73.5809773,54.4222456 C73.5809773,54.7230458 73.3690338,54.7606047 73.1095177,54.7606047 L72.6666016,54.7606047 Z" id="Shape" fill="#E0481D"></path>
                </g>
                <rect id="Rectangle-5" x="0" y="0" width="60" height="71"></rect>
                <rect id="Rectangle-5" x="135" y="1" width="60" height="70"></rect>
            </g>
        </g>
    </g>
</svg>