<svg id="Layer_1" xmlns="http://www.w3.org/2000/svg" viewBox="0 0 240.5 81.2"><style>.st0{fill:#fff}</style><path class="st0" d="M4.5 76.5c-.9 0-1.7-.6-2-1.5-.3-1.1.3-2.3 1.4-2.6 23.7-7.2 47.2-.3 48.2 0 1.1.3 1.7 1.5 1.4 2.6-.3 1.1-1.5 1.7-2.5 1.4-.3-.1-23.5-6.9-45.9 0-.2 0-.4.1-.6.1zm19.8-50.7h-1.7c-1.8 0-3.6-.1-5.5-.2-1.2-.1-2-1.1-1.9-2.2.1-1.2 1.1-2 2.2-1.9 1.8.1 3.6.2 5.3.2 15 .3 21.5-3.3 21.6-3.4 1-.6 2.3-.2 2.8.8.6 1 .2 2.3-.7 2.8-.3.2-6.9 3.9-22.1 3.9z"/><path class="st0" d="M23.4 25.8c-1 0-1.9-.7-2-1.7l-4-20.9 1.6-.6c.4-.2 9-3.8 22.8-2.2l1.9.2-.9 21.4c0 1.2-1 2-2.2 2-1.2 0-2.1-1-2-2.2l.7-17.5c-8.3-.6-14.4.8-17.1 1.6l3.3 17.5c.2 1.1-.5 2.2-1.7 2.4h-.4z"/><path class="st0" d="M13 65.1H.9l5.5-9.2c.6-1 1.9-1.3 2.9-.7 1 .6 1.3 1.9.7 2.9L8.3 61H10l2.2-6.2 2.2 1.3c7.9 4.7 21.3 4.8 29.4-3.4 7.6-7.7 2.8-13.5 2.2-14.1l-.9-1 .6-1.3c1.5-3.3 1.7-6 .7-7.9-1.6-3-5.7-3.8-5.8-3.8-1.1-.2-1.9-1.3-1.7-2.4.2-1.1 1.3-1.9 2.4-1.7.3 0 6.2 1.1 8.8 6 1.5 2.9 1.5 6.4-.1 10.5 1.8 2.8 5.2 10.2-3.2 18.7-4.4 4.4-10.5 7.2-17.2 7.7-5.3.4-10.6-.5-15-2.5L13 65.1z"/><path class="st0" d="M9.9 54c-1.7 0-2.9 0-3.2-.1l-2.1-.2.2-2.1c1.9-20.3 15.8-28.7 16.4-29.1 1-.6 2.3-.3 2.9.7.6 1 .3 2.3-.7 2.9-.5.3-11.7 7.2-14.1 23.7 3.7 0 9.8-.3 12.7-2.4 3.2-2.2 4.7-5.1 4.4-6.3-.1-.4-.6-.6-1.4-.8-1.1-.2-1.9-1.3-1.7-2.4.2-1.1 1.3-1.9 2.4-1.7 3.5.6 4.5 2.8 4.8 4 .8 3.8-2.6 8.2-6.1 10.6-4 2.8-10.6 3.2-14.5 3.2zm30.2-24.5c0 1 .8 1.7 1.7 1.7 1 0 1.7-.8 1.7-1.7 0-1-.8-1.7-1.7-1.7-.9-.1-1.7.7-1.7 1.7z"/><path class="st0" d="M26.5 29.5c0 1 .8 1.7 1.7 1.7 1 0 1.7-.8 1.7-1.7 0-1-.8-1.7-1.7-1.7-1-.1-1.7.7-1.7 1.7zm13.7 2.7S37.8 30 37 29.3c-.8-.7-1.4-.9-2.6 0-1.3.9-5.5 3.9-3.7 4.2 1.9.3 3.5.8 4.2 1.1.6.3 1.4.7 2.4.2 1-.5 2.1-1 2.7-1.1.4-.1 1.5-.2.2-1.5zm-.4 4s-1.7.7-2.4 1.2-.6.6-1.9 0c-1.4-.6-4-1.6-4.8-1.6-.8 0-2.4-.5 0 1.4s4.9 4.4 5.8 3.5c.9-.8 6.4-5.6 3.3-4.5zm34.8-9v-.1c-.2-.7-.4-1.5-.7-2.3-.2-.5-.4-.9-.6-1.2-.2-.4-.4-.7-.7-1.1v-.2c-.2-.3-.5-.6-.9-1s-.7-.7-1.1-.9c-.3-.3-.7-.5-1.2-.7-.4-.2-.8-.4-1.2-.5-.8-.3-1.7-.5-2.5-.6-.5-.1-.9-.1-1.3-.1h-1.6l-.2.2c-.9.3-1.6 1.2-1.6 2.2v2.7c.1.8.1 1.6.1 2.4v.2c.1.8.1 1.6.1 2.4v7.5c0 .9 0 1.7.1 2.6v5.2c.1.8.1 1.6.1 2.4v5.1l-.1 5v1.3l-.1 1.2v2.8c0 .6.3 1.3.7 1.7.5.5 1.1.7 1.8.7h.2c.7 0 1.3-.3 1.7-.8.5-.5.7-1.2.6-1.9 0-.4 0-.8-.1-1.2 0-.4 0-.8-.1-1.3v-1.2l-.1-1.3-.2-7.5v-4.5h.2c.7 0 1.5-.1 2.3-.2.5 0 1-.1 1.3-.3.6-.1 1.1-.3 1.4-.5h.1l.6-.4c.3-.2.5-.4.7-.6.4-.5.8-.9 1-1.3.4-.8.8-1.6.9-2.6.1-.6.2-1.1.3-1.6 0-.2.1-.4.1-.6v-.2c.1-1.5.1-2.9.1-4.3v-2.4c.1-.7 0-1.4-.1-2.2zm-4.4 9.1c-.1.4-.1.8-.2 1.1v.2c-.1.4-.3.9-.4 1.2-.2.4-.3.5-.5.5H69l-.1.1c-.1.1-.4.2-1.1.2h-.2c-.4.1-1.1.1-1.6.1h-.1v-8.8c-.1-.8-.1-1.6-.1-2.4v-2.7c.1-.8.1-1.6.1-2.4v-.3c.3 0 .7.1 1.1.2l.7.3c.1.1.3.2.5.3.4.3.7.6.9.9.3.4.5.8.7 1.3l.2.4v.5l.1.2c.1.2.1.5.2.8.1.3.1.7.1 1.2v2.7c-.1 1.3-.1 2.6-.2 3.8v.6zm12.3-12.7h2.2l1.1-.1H87l1.1-.1h1.4c.7-.1 1.4-.4 1.8-1 .4-.5.5-1.2.4-1.8-.2-1.2-1.2-2.2-2.5-2.2h-.5c-.3 0-.5.1-.7.1h-.1l-1.2.2-2.2.2h-.1c-.7.1-1.4.1-2.1.2l-2.1.2h-.3c-1.1.2-1.9 1.1-1.9 2.1v2.4c-.1.5-.1.9-.1 1.3v1.2l-.1 2.4v5.2c.1.8.1 1.5.1 2.4 0 .8-.1 1.5-.1 2.4-.1.8-.1 1.7-.1 2.6 0 .8 0 1.7.1 2.6v2.6c.1.8.1 1.5.1 2.4v5l-.1 2.4-.1 5.3c0 1.2 1 2.2 2.2 2.2l9.5.1c1.3 0 2.3-1 2.3-2.3 0-1.3-1-2.3-2.3-2.3l-7.2.1v-8c0-.8 0-1.6.1-2.4v-2.6l.2-2.4v-.3c.1 0 .3 0 .4-.1h1c.4 0 .9 0 1.3-.1h1c.5 0 .9 0 1.1-.1.6 0 1.2-.3 1.7-.8.4-.5.6-1.1.6-1.7 0-1.2-1.1-2.2-2.3-2.2h-.2c-.2 0-.5 0-1 .1-.3 0-.7 0-1.1.1h-2.5v-.3c-.1-.8-.1-1.5-.1-2.3 0-.8.1-1.5.1-2.4V25c0-.4 0-.9-.1-1.3l.1-.1zM110 20c-.3-1.1-1.3-2-2.5-2h-.4c-.1 0-.3 0-.5.1h-3.3c-.3 0-.7 0-1.1.1h-5.3c-.7.1-1.4.4-1.8 1-.4.5-.6 1.2-.6 1.8.1 1.3 1.2 2.3 2.5 2.3h.2c.1 0 .3 0 .5-.1.3 0 .6-.1 1-.1h.1c.2 0 .5 0 .8-.1h.2v.6c0 .3 0 .6.1 1 0 .4 0 .8.1 1.3v3.3c-.1.3-.1.6-.1.8-.1.6-.1 1.2-.1 1.7v2.7c0 .3 0 .6.1 1.1v1.7c0 .6 0 1.2-.1 1.7-.1.6-.1 1.3-.1 2s.1 1.2.1 1.9v.1c0 .6.1 1.2.1 1.8v.2c.1.5.1 1.1.1 1.7v1.8c-.1 1.2-.1 2.3-.1 3.4-.1 1.1-.1 2.1-.1 3.1l-.1 6.3c0 1.3 1.1 2.3 2.3 2.3h.2c1.2-.2 2.2-1.2 2.2-2.3 0 0-.1-2.6-.1-6.2v-3.1c-.1-1.1-.1-2.2-.1-3.3v-3.7c0-.5 0-1 .1-1.6v-.2c0-.4 0-.7.1-1 0-.3 0-.6.1-.9V41c0-.5-.1-1.1-.1-1.5 0-.2 0-.3-.1-.5-.1-.6-.1-1.1-.1-1.7v-.1c.1-.6.1-1.2.1-1.8v-3.6c0-.5 0-1.1-.1-1.7v-5.6c0-.7.1-1.3.1-1.8v-.1h1.9l.2.1h1.4c1.6.1 2.4-1.3 2.2-2.7zm7.7 3.6h2.2l1.1-.1h1.1l1.1-.1h1.4c.7-.1 1.4-.4 1.8-1 .4-.5.5-1.2.4-1.8-.2-1.2-1.2-2.2-2.5-2.2h-.5c-.3 0-.5.1-.7.1h-.1l-1.2.2-2.2.2h-.1c-.6.1-1.4.1-2.1.2l-2.1.2h-.2c-1.1.2-1.9 1.1-1.9 2.1v2.4c-.1.5-.1.9-.1 1.3v1.2l-.1 2.4v5.2c.1.8.1 1.5.1 2.4 0 .8-.1 1.5-.1 2.4-.1.8-.1 1.7-.1 2.6 0 .8 0 1.7.1 2.6v2.6c.1.8.1 1.5.1 2.4v5l-.1 2.4-.1 5.3c0 1.2 1 2.2 2.2 2.2l9.5.1c1.3 0 2.3-1 2.3-2.3 0-1.3-1-2.3-2.3-2.3l-7.2.1v-8c0-.8 0-1.6.1-2.4v-2.6l.2-2.4v-.3c.1 0 .3 0 .4-.1h1c.4 0 .9 0 1.3-.1h1c.5 0 .9 0 1.1-.1.6 0 1.2-.3 1.7-.8.4-.5.6-1.1.6-1.7 0-1.2-1.1-2.2-2.3-2.2h-.2c-.2 0-.5 0-1 .1-.3 0-.7 0-1.1.1h-2.5v-.3c-.1-.8-.1-1.5-.1-2.3 0-.8.1-1.5.1-2.4V25c0-.4 0-.9-.1-1.3l.1-.1zm26.6 37.6v-.8l-.2-1.2v-.1l-.3-1.2-.4-1.6v-.1c-.1-.2-.2-.5-.2-.8-.1-.3-.1-.6-.2-.8l-1.1-3.7v-.1c0-.1-.1-.2-.1-.3 0-.2-.1-.3-.2-.5-.1-.4-.2-.7-.3-1-.2-.6-.3-1.2-.5-1.8l-.5-1.7v-.1c0-.2-.1-.5-.2-.8l-.1-.6c0-.2-.1-.3-.1-.5s-.1-.4-.1-.6c.1 0 .2-.1.3-.2.5-.3.9-.6 1.3-.9.5-.4.8-.8 1.1-1.2.6-.8 1-1.7 1.3-2.5V38l.1-.3c.2-.7.3-1.4.4-2.2.1-.7.2-1.4.2-2.2.1-.8.1-1.5.1-2.3v-2.4c-.1-.7-.1-1.4-.2-2.1V26l-.2-.7-.3-.9c0-.1-.1-.2-.1-.3v-.2c-.4-.9-.9-1.8-1.5-2.4-.7-.8-1.6-1.4-2.1-1.7h-.2c-.4-.2-.8-.4-1.3-.6-.4-.1-.8-.3-1.3-.3-.7-.2-1.6-.3-2.5-.3-.4 0-.8 0-1.3.1h-.5c-.2 0-.3 0-.4.1h-.6l-.2.2c-.9.3-1.5 1.2-1.5 2.2v2.7c0 .8 0 1.7.1 2.6.1.8.1 1.6.1 2.4v5c-.1.9-.1 1.8-.1 2.6V39l.1 2.5c0 .9 0 1.7.1 2.6v2.5c0 .8 0 1.6-.1 2.4v2.7l-.1 5.1v2.5c0 .4 0 .8-.1 1.3 0 .4 0 .8-.1 1.2v.3c0 .6.3 1.3.8 1.8s1.1.7 1.7.7h.2c1.4 0 2.4-1.2 2.4-2.6v-.2c-.1-.8-.1-1.6-.1-2.4v-.2c-.1-.8-.1-1.6-.1-2.4l-.2-7.6v-5.3h.4c0 .1 0 .1.1.2v.1c0 .1.1.2.1.4l.3.9.2.6.2.9v.1c.1.4.3 1 .4 1.5v.2c.1.3.2.6.2.9.1.3.1.6.2.9l.2 1v.1c.1.3.1.5.2.8v.1l.9 3.8c.1.4.2.7.2 1 .1.2.1.4.2.7.1.4.2.7.3 1 .1.2.1.4.2.6.1.5.2 1 .4 1.4l.3 1c.1.2.1.3.2.5v.2c.1.2.1.4.2.5.4.8 1.1 1.2 2 1.2h.2c.6 0 1.2-.3 1.6-.8.4-.5.6-1 .5-1.6v-.9zm-9.8-27.6c-.1-.8-.1-1.6-.1-2.4V31c-.1-.7-.1-1.6-.1-2.4l.2-2.5V23h.6c.3 0 .6 0 .9.1.3.1.5.1.8.2h.2c.1 0 .3.1.4.2.4.2.8.5 1.1.8.3.3.5.7.7 1.2.2.5.3 1 .4 1.6.1.6.2 1.1.2 1.7V31c-.1 1.4-.1 2.7-.3 4-.1.5-.3 1.2-.4 1.7-.1.4-.3.9-.6 1.2-.1.1-.2.3-.3.3-.2.1-.3.2-.4.3h-.2c-.3.2-.8.3-1.3.3-.6.1-1.2.1-1.8.1h-.1l.1-5.3zm27.6 15.8c-.1-.8-.2-1.7-.4-2.4-.2-.8-.4-1.6-.7-2.4-.3-.8-.8-1.6-1.4-2.3-.3-.4-.7-.9-1.2-1.2.3-.2.6-.5.8-.8.7-.7 1.2-1.5 1.6-2.3.4-.8.7-1.7.8-2.6l.2-1.2v-3.6c0-.3 0-.8-.1-1.2 0-.2 0-.4-.1-.6 0-.2 0-.4-.1-.6-.1-.8-.3-1.6-.4-2.3v-.1l-.4-1.1c-.1-.4-.3-.8-.5-1.3-.4-.9-.9-1.6-1.5-2.3V21l-1-.9c-.3-.2-.7-.5-1.2-.8-.5-.3-1.1-.5-1.3-.6-.3-.1-.9-.3-1.3-.4-.5-.1-.9-.1-1.4-.1-.4 0-.9 0-1.4.1l-1.2.2-.7.2h-.3l-.7.3c-.7.4-1.1 1.1-1.1 1.9v1.3l.1 1.3.2 9.9.1 1.3.1 1.2.1 2.5v.1c.1.8.1 1.5.1 2.4v7.5l-.1 2.5c-.1.8-.1 1.7-.1 2.5 0 .4 0 .8-.1 1.3 0 .4 0 .8-.1 1.2l-.1 1.3v1.2c0 .2 0 .4-.1.6v1.9c0 .9.6 1.8 1.4 2.1l.6.2h.1l.4.2h.3l.2.1h.1c.4.1.8.1 1.2.1.3 0 .7.1 1.1.1.5 0 1 0 1.5-.1h.2c1-.2 2-.5 2.8-.9 1-.5 1.8-1.1 2.4-1.8.7-.8 1.2-1.5 1.5-2.3.4-.8.6-1.6.9-2.5v-.4c.1-.7.2-1.3.3-2.1l.1-.6v-1.7c0-.8-.1-1.5-.1-2.2l-.1.3zm-10.3-26.3h.9c.1 0 .3 0 .4.1h.3s.1 0 .2.1c.1 0 .2 0 .2.1.1.1.3.1.4.2h.2c.2.1.3.2.5.4l.5.5c.3.4.5.8.7 1.3l.3.8.1.5.2.5c.1.5.2 1.1.3 1.6v.7l.1.1v.1c0 .3.1.6.1.7v.1l.2 2.1v.8c0 .2 0 .3-.1.5v.3c0 .3-.1.5-.1.8l-.3.8c-.2.4-.4.8-.7 1.1-.3.3-.6.6-1.1.9-.4.2-.8.4-1.4.5-.5.1-1 .2-1.5.2v-5.1l-.1-2.5v-2.5l-.1-5c-.2-.2-.2-.5-.2-.7zm.4 36.5V54c0-.8 0-1.7-.1-2.6v-2.5l-.1-2.5v-1.3l-.1-1.2v-.5c.6 0 1.2.1 1.6.2h.2c.5.1.9.3 1.3.5s.7.5 1.1.9c.3.3.5.8.7 1.3v.1c.2.5.4 1 .5 1.6.1.6.2 1.2.3 1.9.1.6.1 1.3.1 1.9v1l-.1.5v.5c0 .6-.1 1.1-.3 1.7-.1.5-.3 1-.5 1.5s-.5.9-.8 1.3c-.2.3-.6.5-1.1.8h-.1c-.3.2-.8.3-1.2.3h-.2c-.3 0-.5.1-.9.1 0 .1-.1.1-.3.1zm25.4-40.9c-.7 0-1.4.3-1.8.8-.4.5-.7 1.2-.6 1.8v3.6c0 .6 0 1.3.1 2.1 0 .7 0 1.4.1 2.1v.1c.1.8.1 1.6.1 2.5v.2c.1.8.1 1.8.1 2.8.1 1 .1 1.9.1 3 0 1 0 2.1-.1 3.3 0 .5 0 1-.1 1.5V48c-.1.6-.1 1.3-.1 1.9 0 .3 0 .6-.1.9 0 .3 0 .6-.1.9v.1c-.1 1.2-.1 2.4-.3 3.6l-.2.9c0 .1 0 .2-.1.3 0 .1-.1.3-.1.4-.2.4-.4.9-.6 1.2-.1.2-.3.3-.4.4l-.3.1h-1l-.2-.1c-.2-.1-.4-.3-.6-.6-.3-.5-.4-.9-.5-1.3v-.2c0-.1-.1-.2-.1-.3 0-.1-.1-.3-.1-.4l-.2-.8c-.2-1.1-.4-2.3-.5-3.5v-3.9c-.1-2.4-.1-4.8-.1-7.1 0-1.1 0-2.2.1-3.2 0-1.1 0-2.2.1-3.2l.2-9.6c.1-2.3.1-3.7.1-3.7 0-1.4-1.1-2.5-2.5-2.5s-2.5 1.1-2.5 2.5c0 .1 0 1.4.1 3.7 0 2.2 0 5.6.1 9.6v8.8c0 1.6.1 3.2.1 4.8v.1c0 .3 0 .6.1.9 0 .3 0 .6.1.9 0 .7.1 1.4.1 2v.3c.1 1.2.2 2.5.4 3.7v.1c.3 1.4.5 2.9 1.3 4.5.2.4.4.7.7 1.2l.1.1 1.1 1.1.1.1c.4.3.9.5 1.4.7.3.1.5.2.7.2l.2.1h.1c.1 0 .3.1.4.1h.2l.2.1h.2c.2 0 .4 0 .5-.1l.7-.1h.1c.5-.1.9-.3 1.4-.6.6-.3 1-.7 1.4-1.1.4-.4.7-.8.9-1.3.4-.8.7-1.5.9-2.3v-.2c0-.1 0-.2.1-.3.1-.2.1-.4.2-.7 0-.1 0-.2.1-.3.1-.2.1-.5.2-.7.2-1.4.4-2.7.5-4.1.1-.7.1-1.4.1-2.1v-1.8c.1-1.3.1-2.5.1-3.7v-.2c-.1-.6-.1-1.1-.1-1.7v-1.8c-.1-1.1-.1-2.1-.1-3.1v-8.5c.1-1.6.1-3.1.1-4.2v-1.3c0-.5 0-.9.1-1.3v-1.2c-.1-1.4-1.3-2.5-2.7-2.5zm20 42.5v-.8l-.2-1.2v-.1l-.3-1.2-.4-1.6v-.1c-.1-.2-.2-.5-.2-.8-.1-.3-.1-.6-.2-.8l-1.1-3.7v-.1c0-.1-.1-.2-.1-.3 0-.2-.1-.3-.2-.5-.1-.4-.2-.7-.3-1-.2-.6-.3-1.2-.5-1.8l-.5-1.7v-.1c-.1-.2-.1-.5-.2-.8l-.1-.6c0-.2-.1-.3-.1-.5s-.1-.4-.1-.6c.1 0 .2-.1.3-.2.5-.3.9-.6 1.3-.9.5-.4.8-.8 1.1-1.2.6-.8 1-1.7 1.3-2.5V38l.1-.3c.2-.7.3-1.4.4-2.2.1-.7.2-1.4.2-2.2.1-.8.1-1.5.1-2.3v-2.4c-.1-.7-.1-1.4-.2-2.1V26l-.2-.7-.3-.9c0-.1-.1-.2-.1-.3v-.2c-.4-.9-.9-1.8-1.5-2.4-.7-.8-1.6-1.4-2.1-1.7h-.2c-.4-.2-.8-.4-1.3-.6-.4-.1-.8-.3-1.3-.3-.7-.2-1.6-.3-2.5-.3-.4 0-.8 0-1.3.1h-.5c-.2 0-.3 0-.4.1h-.6l-.2.2c-.9.3-1.5 1.2-1.5 2.2v2.7c0 .8 0 1.7.1 2.6.1.8.1 1.6.1 2.4v5c-.1.9-.1 1.8-.1 2.6V39l.1 2.5c0 .9 0 1.7.1 2.6v2.5c0 .8 0 1.6-.1 2.4v2.7l-.1 5.1v2.5c0 .4 0 .8-.1 1.3 0 .4 0 .8-.1 1.2v.3c0 .6.3 1.3.8 1.8s1.1.7 1.7.7h.2c1.4 0 2.4-1.2 2.4-2.6v-.2c-.1-.8-.1-1.6-.1-2.4v-.2c-.1-.8-.1-1.6-.1-2.4l-.2-7.6v-5.3h.4c0 .1 0 .1.1.2v.1c0 .1.1.2.1.4l.3.9.1.6.2.9v.1c.1.4.3 1 .4 1.5v.2c.1.3.2.6.2.9.1.3.1.6.2.9l.2 1v.1c.1.3.1.5.2.8v.1l.9 3.8c.1.4.2.7.3 1 .1.2.1.4.2.7.1.4.2.7.3 1 .1.2.1.4.2.6.1.5.2 1 .4 1.4l.3 1c.1.2.1.3.2.5v.2c.1.2.1.4.2.5.4.8 1.1 1.2 2 1.2h.2c.6 0 1.2-.3 1.6-.8.4-.5.6-1 .5-1.6v-.9zm-9.8-27.6c-.1-.8-.1-1.6-.1-2.4V31c-.1-.7-.1-1.6-.1-2.4l.2-2.5V23h.6c.3 0 .6 0 .9.1.3.1.5.1.8.2h.2c.1 0 .3.1.4.2.4.2.8.5 1.1.8.3.3.5.7.7 1.2.2.5.3 1 .4 1.6.1.6.2 1.1.2 1.7V31c-.1 1.4-.1 2.7-.3 4-.1.5-.3 1.2-.4 1.7-.1.4-.3.9-.6 1.2-.1.1-.2.3-.3.3-.2.1-.3.2-.4.3h-.2c-.3.2-.8.3-1.3.3-.6.1-1.2.1-1.8.1h-.1l.1-5.3zm27.9-5.5v-.6l-.3-1.5v-.1c-.1-.4-.2-.9-.4-1.3-.1-.5-.3-.9-.5-1.3-.5-1.1-1.1-2-1.9-2.7-.5-.5-1.1-.9-1.6-1.1-.6-.3-1.2-.5-1.8-.5-.4-.1-.7-.1-1-.1h-.9c-.5.1-1 .1-1.6.3-.6.2-1.3.5-1.8 1-.5.4-.9.8-1.3 1.4-.2.3-.3.5-.4.7v.1c-.1.2-.2.3-.2.4v.1l-.1.2-.1.2c0 .1-.1.2-.1.3-.1.3-.2.6-.3 1-.2.9-.4 1.8-.5 2.6-.1.9-.2 1.7-.2 2.6-.1.8-.1 1.7-.1 2.5-.1.9-.1 1.7-.1 2.5v7.4c0 .7 0 1.3-.1 2 0 1-.1 1.9-.1 2.9.1 1.9.2 3.6.4 5.1l.4 2.6c.1.4.1.8.2 1.2 0 .2.1.5.1.7 0 .2.1.3.1.4v.2c.2.9.5 1.7.9 2.6.2.6.6 1.1.9 1.5.3.4.7.9 1.3 1.3.5.4 1.1.6 1.9.8.7.2 1.3.2 1.7.2h.2c.2 0 .4 0 .5-.1.1 0 .3-.1.5-.1l.9-.3c.7-.4 1.2-.8 1.6-1.2.7-.7 1.2-1.6 1.6-2.7.3-.8.6-1.7.8-2.7.4-1.7.6-3.4.8-5.1v-.1c.1-1.7.2-3.3.2-5 .1-1.7.1-3.4.1-5v-.3c-.2-1.1-1.1-2-2.2-2h-.3l-5.6.5h-.1c-1.3.2-2.2 1.4-2 2.7.2 1.1 1.2 2 2.3 2h.3l3-.3v2.3c0 1.6-.1 3.1-.2 4.8-.1 1.4-.3 3-.6 4.5-.2.7-.4 1.4-.6 2v.2c-.1.5-.4.9-.8 1.4v.1l-.1.1-.2.1-.2.1h-.8c-.1 0-.3-.1-.4-.2-.1-.1-.2-.1-.3-.3l-.4-.7c-.2-.6-.4-1.2-.6-1.9-.3-1.6-.4-3.2-.5-4.5-.1-1.5-.1-3.1-.1-4.8v-.1c0-.8-.1-1.6-.1-2.4-.1-.8-.1-1.6-.1-2.4 0-1.7.1-3.4.1-4.8v-2.6l.1-2.4v-.2c.1-1.5.1-3 .2-4.5 0-.2.1-.5.1-.7.1-.5.1-1 .2-1.5v-.2c.1-.6.3-1.1.5-1.5.1-.2.2-.3.3-.3.1-.1.3-.1.4-.2l.8-.1h.8c.3.1.6.2.8.4.3.3.5.7.8 1.3.2.6.4 1.3.5 1.9 0 .2.1.6.1.9v.1l.1.6v.8c.1 1.3 1.2 2.3 2.5 2.3h.2c1.3-.1 2.4-1.2 2.4-2.6v-.4l-.1-.1.1-.4zm19.7 32.8c-.1-1.2-1.1-2.1-2.3-2.1h-1.6c-.3 0-.6 0-.9.1h-3.7c-.8 0-1.6.1-2.4.1v-.1c.5-1.1 1.1-2.2 1.5-3.3l1.5-3.4 1.5-3.3v-.1c0-.1.1-.3.2-.4.1-.1.1-.2.1-.3l.2-.5.2-.4.7-1.5c.3-.5.5-1 .8-1.7.2-.4.4-.9.6-1.3.1-.1.2-.4.2-.4.2-.6.5-1.2.7-1.9l.5-1.7.5-1.8.3-.9c.1-.2.1-.3.1-.4 0-.1.1-.2.1-.3v-.2c0-.1 0-.2.1-.3 0-.2.1-.3.1-.5l.1-.3c0-.1.1-.2.1-.3v-.1c.2-.7.3-1.4.5-2l.1-.6v-.1l.1-.1v-1.3c0-.7 0-1.3-.1-2-.1-1.3-.2-2.6-.7-4.1v-.1c-.3-.9-.7-1.6-1.2-2.2-.3-.4-.7-.7-1.1-1-.4-.3-.7-.5-1-.6-.1 0-.2-.1-.3-.1h-.2c-.4-.2-.9-.3-1.3-.3-.5-.1-.9-.1-1.2-.1h-1c-.4 0-.8 0-1.3.1-.9.1-1.6.4-2.3.7-.9.4-1.5.9-2.1 1.4l-.1.1-.1.1c-.4.5-1 1.1-1.4 1.9-.4.6-.7 1.3-.9 2.1-.3.7-.4 1.4-.5 2.1 0 .2-.1.3-.1.5s-.1.3-.1.5v.5c-.1.3-.1.5-.1.7v.2c.1 1.4 1.2 2.4 2.5 2.4h.2c1.4 0 2.4-1.2 2.4-2.6v-.4l-.1-.1V29c.1-.3.1-.6.1-.9 0-.4.1-.8.2-1.2v-.2c.2-.5.3-.9.5-1.2.2-.4.4-.7.6-1 .3-.3.5-.5.7-.6.3-.2.7-.3 1-.3h1.5c.4 0 .7.1 1 .2.2.1.2.1.3.2v.1l.1.1c.1.1.2.2.2.3 0 .1.1.3.1.4l.1.2c.1.4.2.9.3 1.3v.2c.1.3.1.6.1 1v3l-.1.8-.1.1v.4l-.1.2v.3l-.1.6v.3l-.1.3-.2.9c-.2.9-.6 1.9-1.1 3.1l-.8 1.8v.2c0 .1-.1.3-.2.4v.1l-.3 1-1.2 3.4v.1c-.3 1-.8 2.1-1.2 3.2-.5 1.1-.9 2.2-1.4 3.3l-.3.6c-.2.3-.3.7-.5 1.1l-.7 1.5c-.5 1.1-1 2.1-1.6 3.2-.5 1-1 2.1-1.6 3.1l-.2.3v.3c0 .1-.1.3-.1.5 0 1.2 1 2.2 2.2 2.2h9.3l.8-.1h.7c.3 0 .6 0 .9-.1.3 0 .6 0 .9-.1.6-.1 1.1-.4 1.5-.8.8-.7 1-1.3 1-1.9z"/></svg>