<svg width="179" height="33" xmlns="http://www.w3.org/2000/svg"><g fill="#00B956"><path d="M27.058 24.747a2 2 0 0 1-1.99-2.012 2 2 0 0 1 1.99-2.01 2 2 0 0 1 1.989 2.01 2.017 2.017 0 0 1-.581 1.424 1.97 1.97 0 0 1-1.408.588m-4.663 0a2 2 0 0 1-1.989-2.012 2 2 0 0 1 1.99-2.01 2 2 0 0 1 1.988 2.01 2.017 2.017 0 0 1-.58 1.424 1.97 1.97 0 0 1-1.409.588m-4.662 0a2 2 0 0 1-1.989-2.012 2 2 0 0 1 1.99-2.01 2 2 0 0 1 1.988 2.01 2.017 2.017 0 0 1-.58 1.424 1.97 1.97 0 0 1-1.409.588M18.073 0v16.627a1.307 1.307 0 0 1-1.3 1.297H14.8a.174.174 0 0 0-.126.054.178.178 0 0 0-.049.129v13.886c.483.048.97.07 1.47.07 8.424.03 15.412-6.586 15.936-15.089C32.556 8.472 26.436 1.03 18.073 0"/><path d="M12.695 13.144a1.982 1.982 0 0 1-1.972-1.992c0-1.1.883-1.993 1.972-1.993 1.09 0 1.972.892 1.972 1.993a2 2 0 0 1-.578 1.408c-.37.374-.87.584-1.394.584zM15.718 0C7.682.029.951 6.159.092 14.233c-.86 8.074 4.425 15.51 12.272 17.267V17.214a1.295 1.295 0 0 1 1.235-1.275h1.977a.175.175 0 0 0 .174-.17V0h-.032zm159.249 9v5.965h-7.93V9h-3.912v15.75h3.913v-6.365h7.93v6.365h3.907V9zm-71.742 9.184l2.462-5.764a.342.342 0 0 1 .646 0l2.467 5.791-5.575-.027zm6.071-7.611a3.599 3.599 0 0 0-3.283-2.136 3.599 3.599 0 0 0-3.284 2.136L96.188 24.75h4.271l1.426-3.374h8.293l1.425 3.374h4.272l-6.579-14.177zm-47.59-4.385c-1.862 0-3.045 1.004-3.926 3.025l-5.184 12.09-5.188-12.09c-.881-2.02-2.064-3.025-3.932-3.025-1.74 0-3.538 1.262-3.538 4.003v14.971h3.973V10.599l5.216 11.984c.695 1.676 1.825 2.73 3.464 2.73 1.64 0 2.764-1.075 3.47-2.73l5.215-11.984v14.563h3.974V10.191c0-2.74-1.804-4.004-3.544-4.004m10.658 15.226a.344.344 0 0 1-.343-.343v-2.805h9.871v-3.206h-9.871v-2.395a.343.343 0 0 1 .343-.337h9.761V9h-11.71a2.363 2.363 0 0 0-2.353 2.348v11.054a2.363 2.363 0 0 0 2.352 2.348h11.711v-3.337h-9.76zM88.9 24.75V12.666a.343.343 0 0 1 .343-.337H99V9H87.294a2.369 2.369 0 0 0-2.356 2.35v13.4H88.9zm63.03-3.286h-1.257c-3.274 0-4.536-1.496-4.536-4.83 0-3.238 1.11-4.83 4.536-4.83h1.258c3.326 0 4.536 1.597 4.536 4.824 0 3.334-1.288 4.83-4.536 4.83v.006zm8.382-4.852c0-5.576-2.357-8.174-8.303-8.174h-1.393c-5.946 0-8.298 2.598-8.304 8.174 0 5.491 2.405 8.138 8.34 8.138h1.3c5.93 0 8.34-2.663 8.34-8.138h.02zm-24.879.093c-.591 1.609-1.552 2.601-4.225 2.601h-1.81V9.572h2.428c2.282 0 3.84 1.448 3.84 4.864a6.864 6.864 0 0 1-.228 2.269h-.005zm-9.991 2.628h-1.817c-2.677 0-3.638-1.014-4.224-2.601a6.864 6.864 0 0 1-.228-2.269c0-3.416 1.558-4.864 3.84-4.864h2.434l-.005 9.734zm5.888-13.119h-7.832c-5.845 0-8.185 3.004-8.185 8.244-.008.761.047 1.522.164 2.274.618 3.674 2.767 5.958 8.222 5.958h1.722v2.06h3.95v-2.06h1.721c5.476 0 7.626-2.279 8.244-5.985.116-.752.171-1.513.163-2.274 0-5.24-2.34-8.243-8.185-8.243l.016.026z"/></g></svg>