<svg width="810" height="243" xmlns="http://www.w3.org/2000/svg"><g fill="none"><rect fill="#00B956" width="810" height="243" rx="120.5"/><g fill="#FFF"><path d="M165.243 154.8c-4.047 0-7.327-3.44-7.327-7.685 0-4.244 3.28-7.684 7.327-7.684 4.047 0 7.327 3.44 7.327 7.684.006 2.04-.765 3.998-2.14 5.44-1.375 1.443-3.242 2.25-5.187 2.245m-17.175 0c-4.047 0-7.327-3.44-7.327-7.685 0-4.244 3.28-7.684 7.327-7.684 4.047 0 7.327 3.44 7.327 7.684.005 2.04-.765 3.998-2.14 5.44-1.375 1.443-3.242 2.25-5.187 2.245m-17.175 0c-4.047 0-7.328-3.44-7.328-7.685 0-4.244 3.281-7.684 7.328-7.684 4.047 0 7.327 3.44 7.327 7.684.005 2.04-.765 3.998-2.14 5.44-1.376 1.443-3.242 2.25-5.187 2.245m1.25-94.552v63.526c-.032 2.75-2.166 4.96-4.787 4.96h-7.269a.63.63 0 0 0-.463.205.695.695 0 0 0-.181.491v53.055a52.18 52.18 0 0 0 5.412.267c31.036.114 56.777-25.163 58.71-57.649 1.933-32.486-20.613-60.922-51.422-64.855"/><path d="M111.776 109.661c-4.163 0-7.539-3.353-7.539-7.49 0-4.136 3.376-7.49 7.54-7.49 4.163 0 7.539 3.354 7.539 7.49a7.465 7.465 0 0 1-2.209 5.297 7.565 7.565 0 0 1-5.33 2.193zm11.56-49.413c-30.73.11-56.464 23.154-59.752 53.508-3.288 30.354 16.922 58.31 46.926 64.913V124.96c.05-2.588 2.121-4.689 4.724-4.794h7.56a.661.661 0 0 0 .663-.639v-59.28h-.12zM730.821 97v23.197H700.5V96.999h-14.961v61.252H700.5v-24.755h30.321v24.755h14.941V97zm-270.95 36.598l9.538-21.647a1.32 1.32 0 0 1 1.262-.861 1.32 1.32 0 0 1 1.241.861l9.559 21.747-21.6-.1zm23.524-28.582c-2.237-4.87-7.221-8.01-12.724-8.017-5.503.006-10.487 3.147-12.724 8.017l-25.345 53.235h16.552l5.524-12.667h32.131l5.524 12.667h16.552l-25.49-53.235zM302.68 84.749c-7.09 0-11.593 3.647-14.945 10.981l-19.732 43.887L248.25 95.73c-3.353-7.334-7.857-10.981-14.966-10.981-6.624 0-13.47 4.583-13.47 14.531v54.342h15.126v-52.86l19.853 43.497c2.646 6.086 6.948 9.909 13.188 9.909 6.241 0 10.523-3.901 13.209-9.909l19.853-43.496v52.859h15.127V99.28c0-9.948-6.867-14.531-13.491-14.531m38.716 60.523c-.364 0-.714-.14-.971-.39a1.31 1.31 0 0 1-.402-.94V133.03h39.458v-12.468h-39.458v-9.314c.011-.727.623-1.31 1.373-1.31h39.014v-12.94H333.6c-5.185.034-9.376 4.105-9.4 9.13v42.992c.024 5.025 4.215 9.097 9.4 9.13h46.809v-12.979h-39.014zm62.88 12.979v-46.994c.011-.727.623-1.311 1.372-1.31h39V96.998h-46.791c-5.187.034-9.383 4.105-9.417 9.137v52.115h15.836zm239.307-12.338h-4.487c-11.685 0-16.19-5.62-16.19-18.138 0-12.158 3.963-18.137 16.19-18.137h4.487c11.871 0 16.19 5.999 16.19 18.117 0 12.519-4.6 18.138-16.19 18.138v.02zm29.912-18.218c0-20.937-8.413-30.696-29.632-30.696h-4.973c-21.22 0-29.614 9.759-29.632 30.696 0 20.618 8.58 30.556 29.763 30.556h4.636c21.164 0 29.764-9.998 29.764-30.556h.074zm-95.824-3.613c-2.258 6.017-5.927 9.727-16.128 9.727h-6.915V97.405h9.274c8.71 0 14.657 5.416 14.657 18.192a25.169 25.169 0 0 1-.867 8.485h-.02zm-38.144 9.828h-6.935c-10.222 0-13.89-3.791-16.129-9.728a25.169 25.169 0 0 1-.867-8.485c0-12.776 5.948-18.192 14.657-18.192h9.294l-.02 36.405zm22.48-49.061h-29.899c-22.318 0-31.25 11.232-31.25 30.828a50.93 50.93 0 0 0 .626 8.505c2.359 13.74 10.564 22.284 31.39 22.284h6.573v7.702h15.08v-7.702h6.572c20.907 0 29.112-8.525 31.471-22.384a50.93 50.93 0 0 0 .625-8.505c0-19.596-8.931-30.828-31.249-30.828l.06.1z"/></g></g></svg>