<svg xmlns="http://www.w3.org/2000/svg" viewBox="0 0 402.5 119.4"><path d="M396.1 6.6c-2.2 0-3-.9-3-2.4s.8-2.4 3-2.4h4.1v4.9h-4.1zm-.2-6.4c-2.9 0-4.5 1.5-4.5 4 0 1.7.7 2.9 2.1 3.5l-2.2 6.2h1.8l2-5.8c.4 0 .7.1 1.1.1h4v5.7h1.7V.2h-6zm-19.6 0v13.7h2.7l6.4-11.6h.4v11.6h1.7V.2h-2.7l-6.4 11.6h-.4V.2h-1.7zm-5.4 9.8c-.4 1.6-1.7 2.6-3.6 2.6-3.2 0-4.6-2.6-4.6-5.5s1.4-5.5 4.6-5.5c1.9 0 2.9.8 3.4 2.3h1.8c-.5-2.4-2.4-3.9-5.2-3.9-4.1 0-6.3 3-6.3 7.1s2.3 7.1 6.3 7.1c3 0 4.9-1.7 5.4-4.1h-1.8zm-14.7 0c-.4 1.6-1.7 2.6-3.6 2.6-3.2 0-4.6-2.6-4.6-5.5s1.4-5.5 4.6-5.5c1.9 0 2.9.8 3.4 2.3h1.8c-.5-2.3-2.5-3.8-5.2-3.8-4.1 0-6.3 3-6.3 7.1s2.3 7.1 6.3 7.1c3 0 4.9-1.7 5.4-4.1h-1.8zm-19.5 2.6c-3.3 0-4.6-2.6-4.6-5.5s1.4-5.5 4.6-5.5c3.3 0 4.6 2.6 4.6 5.5s-1.4 5.5-4.6 5.5m0-12.6c-4.2 0-6.4 3.1-6.4 7.1 0 3.9 2.2 7.1 6.4 7.1s6.4-3.1 6.4-7.1c-.1-4-2.3-7.1-6.4-7.1m-14.4 6.9h-3.8V1.8h3.8c2.3 0 3.2 1 3.2 2.6-.1 1.5-.9 2.5-3.2 2.5m.2-6.7h-5.8v13.7h1.7V8.4h4.1c3 0 4.6-1.5 4.6-4.1.1-2.5-1.6-4.1-4.6-4.1" fill="#7f8080"/><path d="M95.2 47.1h17.5v40.5H95.2zm17.6-12.5c0 5-3.9 9-8.8 9-4.8 0-8.8-4-8.8-9s3.9-9 8.8-9c4.8 0 8.8 4 8.8 9M63.6 24.4c-6.9 0-13.1 2.7-17.8 7.1-4.7-4.4-11-7.1-17.8-7.1-14.7 0-26.6 12.2-26.6 27.3v35.8h17.5V51.7c0-5.2 4.1-9.3 9.1-9.3s9.1 4.2 9.1 9.3v35.8h17.5V51.7c0-5.2 4.1-9.3 9.1-9.3s9.1 4.2 9.1 9.3v35.8h17.5V51.7c-.1-15-12-27.3-26.7-27.3m181.5 0c-6.9 0-13.1 2.7-17.8 7.1-4.7-4.4-11-7.1-17.8-7.1-14.7 0-26.6 12.2-26.6 27.3v35.8h17.5V51.7c0-5.2 4.1-9.3 9.1-9.3s9.1 4.2 9.1 9.3v35.8h17.5V51.7c0-5.2 4.1-9.3 9.1-9.3s9.1 4.2 9.1 9.3v35.8h17.5V51.7c-.1-15-12-27.3-26.7-27.3m61.5 46.3c-7.7 0-13.9-6.6-13.9-14.7s6.2-14.7 13.9-14.7 13.9 6.6 13.9 14.7-6.2 14.7-13.9 14.7m14.8-45.1v5.3c-4.9-4.1-11-6.5-17.6-6.5-16 0-29 14.1-29 31.6 0 17.4 13 31.6 29 31.6 6.6 0 12.7-2.4 17.6-6.5v6.5h17.5v-62h-17.5zm50.5 45.1c-7.7 0-13.9-6.6-13.9-14.7s6.2-14.7 13.9-14.7 13.9 6.6 13.9 14.7-6.2 14.7-13.9 14.7m13-45.1v4c-4.6-3.3-10-5.2-15.9-5.2-16 0-29 14.1-29 31.6 0 17.4 13 31.6 29 31.6 5.9 0 11.3-1.9 15.9-5.2v5.2c0 7-5.8 11-12.1 11-5.4 0-9.8-3-9.8-6.8h-19.3c0 12.4 13 22.4 29.1 22.4s29.6-11.3 29.6-26.6v-62h-17.5zm-226 0l-9.5 14.8-.5.2-9.8-15h-21.6L136.9 54l-22.4 33.5H135l11.1-17.9.8-.4 11.5 18.3h22.9l-22.7-32.3 19.6-29.6zM2.3 96.7h2.8l3.5 6.4H9l3.4-6.4h2.8v13.6h-1.7V98.7h-.4l-3.5 6.4H7.9l-3.5-6.4H4v11.6H2.3V96.7zm18.2 0v13.6h-1.7V96.7h1.7zm8.3 7.4h-.7l-3.5 6.2h-1.9l4.1-7.2-3.5-6.4h1.8l3 5.4h.7l3-5.4h1.8l-3.5 6.3 4.1 7.2h-2l-3.4-6.1zm7.6-7.4h2.8l3.5 6.4h.3l3.4-6.4h2.8v13.6h-1.7V98.7h-.4l-3.5 6.4h-1.7l-3.5-6.4H38v11.6h-1.7V96.7zm24.1 9.4h-5.9l-1.4 4.2h-1.7l4.7-13.6H59l4.7 13.6h-1.8l-1.4-4.2zm-5.5-1.5h4.9l-2.1-6.1H57l-2 6.1zm21.9-1.5v1.4c0 3.1-1.6 6.1-5.7 6.1s-6.3-3.1-6.3-7c0-4 2.2-7 6.3-7 2.8 0 4.7 1.5 5.2 3.8h-1.8c-.4-1.4-1.5-2.2-3.5-2.2-3.2 0-4.6 2.5-4.6 5.5 0 2.9 1.4 5.5 4.6 5.5 2.8 0 3.9-1.9 3.9-4.1v-.2h-4v-1.5h5.9zm2 7.2v-2.2h2v2.2h-2zm7-13.6v13.6h-1.7V96.7h1.7zm15.6 6.8c0 3.9-2.2 7-6.3 7s-6.3-3.1-6.3-7 2.2-7 6.3-7 6.3 3.1 6.3 7zm-1.7 0c0-2.8-1.4-5.5-4.6-5.5s-4.6 2.6-4.6 5.5c0 2.8 1.4 5.5 4.6 5.5s4.6-2.6 4.6-5.5z" fill="#fff"/></svg>