<?xml version="1.0" encoding="utf-8"?>
<!-- Generator: Adobe Illustrator 22.1.0, SVG Export Plug-In . SVG Version: 6.00 Build 0)  -->
<svg version="1.1" id="Layer_1" xmlns="http://www.w3.org/2000/svg" xmlns:xlink="http://www.w3.org/1999/xlink" x="0px" y="0px"
	 viewBox="0 0 96.8 8.8" style="enable-background:new 0 0 96.8 8.8;" xml:space="preserve">
<style type="text/css">
	.st0{fill-rule:evenodd;clip-rule:evenodd;}
</style>
<g>
	<path d="M81.7,5.4h-2.1v2.9h-0.6V0.6h2.8c1.7,0,2.9,0.9,2.9,2.4v0C84.7,4.6,83.3,5.4,81.7,5.4z M84.2,3c0-1.2-0.9-1.9-2.3-1.9h-2.2
		v3.8h2.1C83.2,4.9,84.2,4.1,84.2,3L84.2,3z"/>
	<path d="M93.8,8.3l-2.5-3.2h-2.5v3.2h-0.6V0.6h3.2c1.7,0,2.7,0.9,2.7,2.2v0c0,1.3-1,2-2.3,2.2l2.5,3.3H93.8z M93.6,2.8
		c0-1-0.8-1.7-2.2-1.7h-2.6v3.5h2.6C92.7,4.6,93.6,3.9,93.6,2.8L93.6,2.8z"/>
	<path class="st0" d="M6.4,8.4c0.5,0,0.9-0.1,1.3-0.2C8,8.2,8.4,8,8.7,7.8C9,7.6,9.2,7.4,9.5,7.1L8.6,6.2C8.4,6.4,8.2,6.6,8,6.7
		C7.8,6.9,7.5,7,7.3,7.1C7,7.2,6.7,7.2,6.4,7.2c-0.4,0-0.7-0.1-1-0.2C5.1,6.8,4.8,6.7,4.6,6.4C4.4,6.1,4.2,5.9,4.1,5.5
		C4,5.2,3.9,4.8,3.9,4.5v0c0-0.4,0.1-0.7,0.2-1.1c0.1-0.3,0.3-0.6,0.5-0.9c0.2-0.3,0.5-0.4,0.8-0.6c0.3-0.1,0.6-0.2,1-0.2
		c0.3,0,0.6,0,0.8,0.1C7.5,1.9,7.7,2,8,2.2c0.2,0.1,0.4,0.3,0.6,0.5l0.9-1C9.2,1.4,8.9,1.2,8.7,1.1c-0.3-0.2-0.6-0.3-1-0.4
		C7.3,0.5,6.9,0.5,6.4,0.5C6,0.5,5.5,0.6,5.1,0.7C4.7,0.8,4.4,1,4,1.3C3.7,1.5,3.4,1.8,3.2,2.1C3,2.5,2.8,2.8,2.7,3.2
		C2.5,3.6,2.5,4,2.5,4.5v0c0,0.4,0.1,0.9,0.2,1.3C2.8,6.1,3,6.5,3.2,6.8C3.4,7.2,3.7,7.4,4,7.7c0.3,0.2,0.7,0.4,1.1,0.6
		C5.5,8.4,5.9,8.4,6.4,8.4L6.4,8.4z"/>
	<path class="st0" d="M17.5,0.6h-1.3l-3.4,7.7h1.4L15,6.5h3.6l0.8,1.9h1.4L17.5,0.6z M15.5,5.3l1.3-3.1l1.3,3.1H15.5z"/>
	<path class="st0" d="M30.1,1.8c-0.2-0.4-0.6-0.7-1-0.9c-0.4-0.2-1-0.3-1.6-0.3h-3v7.7h1.3V5.8h1.5c0.4,0,0.8-0.1,1.2-0.2
		c0.4-0.1,0.7-0.3,1-0.5c0.3-0.2,0.5-0.5,0.7-0.8c0.2-0.3,0.2-0.7,0.2-1.1v0C30.5,2.7,30.4,2.2,30.1,1.8z M29.1,3.2
		c0,0.3-0.1,0.5-0.2,0.7c-0.1,0.2-0.3,0.4-0.6,0.5c-0.2,0.1-0.5,0.2-0.9,0.2h-1.6V1.9h1.6c0.3,0,0.6,0.1,0.9,0.2
		c0.3,0.1,0.4,0.3,0.6,0.5C29.1,2.7,29.1,2.9,29.1,3.2L29.1,3.2z"/>
	<path class="st0" d="M37.7,0.6h-1.3L33,8.3h1.4l0.8-1.9h3.6l0.8,1.9h1.4L37.7,0.6z M35.7,5.3L37,2.2l1.3,3.1H35.7z"/>
	<path class="st0" d="M52.7,3.1c-0.2-0.4-0.4-0.7-0.7-1c-0.3-0.3-0.7-0.5-1.2-0.7c-0.5-0.2-1-0.3-1.7-0.3V0.3h-1.4v0.8
		c-0.6,0-1.2,0.1-1.7,0.3c-0.5,0.2-0.9,0.4-1.2,0.7c-0.3,0.3-0.6,0.6-0.7,1c-0.2,0.4-0.3,0.8-0.3,1.3v0.1c0,0.5,0.1,0.9,0.3,1.3
		c0.2,0.4,0.4,0.7,0.7,1c0.3,0.3,0.7,0.5,1.2,0.7c0.5,0.2,1,0.3,1.7,0.3v0.7h1.4V7.8c0.6,0,1.2-0.1,1.7-0.3c0.5-0.2,0.9-0.4,1.2-0.7
		c0.3-0.3,0.6-0.6,0.7-1c0.2-0.4,0.3-0.8,0.3-1.3V4.4C52.9,4,52.8,3.5,52.7,3.1z M47.8,6.7c-0.6,0-1-0.1-1.4-0.3
		C46,6.2,45.7,6,45.5,5.6c-0.2-0.3-0.3-0.7-0.3-1.1V4.4c0-0.4,0.1-0.8,0.3-1.1C45.7,3,46,2.7,46.4,2.5c0.4-0.2,0.8-0.3,1.4-0.3V6.7z
		 M51.5,4.5c0,0.4-0.1,0.8-0.3,1.1C51,6,50.8,6.2,50.4,6.4C50,6.6,49.6,6.7,49,6.7V2.3c0.6,0,1,0.1,1.4,0.3C50.8,2.7,51,3,51.2,3.3
		C51.4,3.6,51.5,4,51.5,4.5L51.5,4.5z"/>
	<path class="st0" d="M60.2,0.6H59l-3.4,7.7H57l0.8-1.9h3.6l0.8,1.9h1.4L60.2,0.6z M58.3,5.3l1.3-3.1l1.3,3.1H58.3z"/>
	<polygon class="st0" points="67.3,8.3 68.6,8.3 68.6,5.1 72.3,5.1 72.3,8.3 73.6,8.3 73.6,0.6 72.3,0.6 72.3,3.8 68.6,3.8 
		68.6,0.6 67.3,0.6 67.3,8.3 	"/>
</g>
</svg>
