<svg id="Слой_1" xmlns="http://www.w3.org/2000/svg" viewBox="0 0 3674.4 1531.2"><style>.st0{fill:#00303f}</style><path class="st0" d="M362.5 1241.8c-17.7 9.3-41.2 17.3-73.1 17.3-51.8 0-83.3-17.7-108.1-41.2-34.1-32.8-47.4-69.5-47.4-112.9 0-53.6 22.1-92.1 47.4-115.6 29.7-27.9 66.4-39 108.5-39 20.8 0 45.6 3.5 72.6 18.2v67.3c-27-31-60.7-33.2-71.3-33.2-59.3 0-97.9 48.7-97.9 103.2 0 65.5 50.5 101 100.1 101 27.5 0 51.8-12 69.1-32.3v67.2zm206.3-82.1l-35.4-90.5-36.2 90.5h71.6zm14.3 39.9H481.6l-22.2 52.8h-53.2l109-256.8h37l106 256.8h-52.8l-22.3-52.8zm177.6-101.4h106.4v-97.3h49v251.5h-49v-112H760.7v112h-49v-251.5h49zm288.6 9l92.4-106.3h61.8L1097.2 1117l112 135.4h-64.9l-89.4-112.7-5.6 5.6v107.1h-49v-251.5h49zm305.4-64.1v209.3h-49v-209.3h-56.6v-42.2h162.2v42.2zm78 101.5h98.1v42.2h-98.1zM1832.2 957v295.4h-57.6v-245.8h-118.7v245.8h-57.5V957zm224 86.1h-90.5v56.2h86.7v42.3h-86.7v68.6h90.5v42.2h-139.5v-251.5h139.5zm161.7 0v209.3h-49v-209.3h-56.6v-42.2h162.1v42.2zm253.2 0h-90.5v56.2h86.7v42.3h-86.7v68.6h90.5v42.2h-139.5v-251.5h139.5zm122.8 73.9h20c9.4 0 21.5 0 32-7.9 9.1-7.2 13.6-18.5 13.6-29.4 0-14-6.8-23.4-13.9-28.6-10.2-7.2-23-7.9-34.7-7.9h-17v73.8zm24.1-116.1c28.3 0 47.9 3 66.4 19.2 20.4 18.1 25.7 42.6 25.7 60.7 0 9.8-1.5 37-20.8 56.2-13.9 14-34.7 22.3-63.7 22.3h-31.7v93.1h-49v-251.5h73.1zm203.5 209.3h23.4c39.2 0 46.8-18.5 46.8-32.8 0-15.8-8.7-34.3-46-34.3h-24.1v67.1h-.1zm-49-209.3H2918v42.2h-96.5v57.7h33.9c18.8 0 43.4 3 63 20.4 14.3 12.8 23.8 32.1 23.8 55.8 0 17-5.3 32.4-14 44.9-19.2 27.2-50.5 30.5-72.4 30.5h-83.3v-251.5zm248.5 282.4l35.3-84.8-88.3-197.6h52.1l61.7 146 56.2-146 52.8-.3-117.4 282.4zm265.5-166.3h20c9.4 0 21.5 0 32.1-7.9 9.1-7.2 13.6-18.5 13.6-29.4 0-14-6.8-23.4-14-28.6-10.2-7.2-23-7.9-34.7-7.9h-17v73.8zm24.1-116.1c28.3 0 47.9 3 66.4 19.2 20.4 18.1 25.6 42.6 25.6 60.7 0 9.8-1.5 37-20.8 56.2-13.9 14-34.7 22.3-63.7 22.3h-31.7v93.1h-49v-251.5h73.2zm284.8 42.2h-84.5v209.3h-49v-251.5h133.5z"/><path d="M753.1 650.4C874.6 599 959.9 478.7 959.9 338.5 959.9 151.5 808.4 0 621.5 0 434.6 0 283 151.5 283 338.5c0 172.3 128.8 314.4 295.3 335.6l-440.4 43.7v23.8L3292 737l146.1-356.4-2685 269.8z" fill-rule="evenodd" clip-rule="evenodd" fill="#1daeca"/><path class="st0" d="M226.9 1416h-30.4v114.1H176V1416h-30.4v-19H227v19h-.1zm393.2-19v19h-52.8v31.9h51.3v19h-51.3v44.1h52.8v19h-73.4v-133h73.4zm341.3 0h85v133.1h-20.5V1416H982v66.3c0 11.7-1.1 20.4-3.3 26.3-2.2 5.9-5.6 10.7-10.2 14.5-3.2 2.7-6.7 4.7-10.6 6-3.9 1.3-8.2 2-12.7 2-1.8 0-3.5-.1-5-.4-1.6-.3-3.1-.5-4.7-.8v-19c1.3.4 2.5.7 3.6.9 1.1.2 2.2.3 3 .3 2.3 0 4.6-.4 7-1.2 2.4-.8 4.3-1.9 5.7-3.1 2.3-2.2 4-5.6 5-10.4 1.1-4.8 1.6-11.8 1.6-21.2V1397zm491.4 0v19H1400v31.9h51.3v19H1400v44.1h52.8v19h-73.4v-133h73.4zm348.3 0v53l51.4-53h26.6l-60.1 60.3 60.4 72.8h-26.9l-51.4-63.9v63.9h-20.5V1397h20.5zm490.9 133.1l-14-32.3h-56.5l-14.6 32.3h-22l66.1-140.7 63.1 140.7H2292zm-62-51.4h39.7l-19.5-44.8-20.2 44.8zm423.2-81.7v52.1h56.6V1397h20.5v133.1h-20.5v-62h-56.6v62h-20.5V1397h20.5zm503 133.1l-14-32.3h-56.5l-14.6 32.3h-22l66.1-140.7 63.1 140.7h-22.1zm-62-51.4h39.7l-19.5-44.8-20.2 44.8zm416.3-81.7h85v133.1H3575V1416h-44v66.3c0 11.7-1.1 20.4-3.3 26.3-2.2 5.9-5.6 10.7-10.2 14.5-3.2 2.7-6.7 4.7-10.6 6-3.9 1.3-8.2 2-12.7 2-1.8 0-3.5-.1-5-.4-1.6-.3-3.1-.5-4.7-.8v-19c1.3.4 2.5.7 3.6.9 1.1.2 2.2.3 3 .3 2.3 0 4.6-.4 7-1.2 2.4-.8 4.3-1.9 5.7-3.1 2.3-2.2 4-5.6 5-10.4 1.1-4.8 1.6-11.8 1.6-21.2V1397z"/></svg>