<svg width="113" height="32" xmlns="http://www.w3.org/2000/svg"><path d="M77.272 31.994h.934V.004h-.934zM90.608 21.61c0-.276-.093-.48-.263-.626-.17-.147-.408-.215-.726-.215-.2 0-.367.01-.492.04v1.65c.105.025.244.04.425.04.328 0 .584-.08.77-.237a.813.813 0 0 0 .286-.651zm.729-.046c0 .422-.12.762-.375 1.01-.318.333-.79.496-1.416.496a3.21 3.21 0 0 1-.42-.024v1.763h-.667v-4.51c.262-.073.673-.1 1.127-.1.59 0 1.027.122 1.322.372.291.244.429.58.429.993zm2.257.595a.752.752 0 0 0-.189-.02.764.764 0 0 0-.623.293 1.073 1.073 0 0 0-.189.648v1.729h-.745v-2.261c0-.376-.01-.722-.025-1.033h.648l.026.626h.027a.992.992 0 0 1 .378-.515.935.935 0 0 1 .544-.18.69.69 0 0 1 .148.017v.696zm1.01.654a1.09 1.09 0 0 1 .22-.57.723.723 0 0 1 .595-.302c.27 0 .458.109.594.31a.982.982 0 0 1 .146.562h-1.555zm1.97-.85c-.253-.347-.615-.527-1.095-.527-.488 0-.88.18-1.167.528-.278.334-.413.748-.413 1.244 0 .51.144.909.441 1.217.3.303.706.45 1.223.45.428 0 .805-.068 1.113-.198l-.109-.514a2.51 2.51 0 0 1-.904.153c-.302 0-.546-.078-.729-.23-.21-.167-.318-.42-.33-.748h2.235a1.49 1.49 0 0 0 .03-.333 1.83 1.83 0 0 0-.295-1.042zm5.54 2.846h-.726v-1.843c0-.618-.208-.918-.594-.918a.572.572 0 0 0-.437.227.84.84 0 0 0-.18.521v2.013h-.717V22.86c0-.245-.057-.443-.162-.593-.096-.147-.252-.22-.455-.22a.59.59 0 0 0-.495.242.853.853 0 0 0-.2.553v1.966h-.717v-2.35c0-.29-.015-.608-.022-.944h.623l.045.487h.018c.23-.37.562-.556 1.013-.556.45 0 .764.204.922.616h.008c.107-.177.235-.313.4-.421a.996.996 0 0 1 .587-.195.98.98 0 0 1 .735.303c.236.24.354.612.354 1.104v1.956zm1.659 0h-.743v-3.294h.743v3.294zm.086-4.293c0 .13-.046.231-.13.31a.483.483 0 0 1-.341.131.437.437 0 0 1-.435-.44.43.43 0 0 1 .13-.316.465.465 0 0 1 .323-.12.48.48 0 0 1 .323.12c.084.092.13.19.13.315zm3.637 4.293h-.66l-.04-.497h-.01c-.238.39-.592.576-1.063.576-.332 0-.62-.098-.815-.307-.229-.244-.352-.62-.352-1.121v-1.945h.776v1.814c0 .635.222.945.66.945.33 0 .556-.157.687-.47a.768.768 0 0 0 .045-.277v-2.012h.742v2.353c0 .305.017.621.03.94zm5.5 0h-.722v-1.843c0-.618-.208-.918-.637-.918a.576.576 0 0 0-.479.227.798.798 0 0 0-.188.521v2.013h-.716V22.86c0-.245-.058-.443-.163-.593a.524.524 0 0 0-.456-.22c-.2 0-.364.077-.494.242-.128.16-.169.345-.169.553v1.966h-.708v-2.35c0-.29-.005-.608-.022-.944h.634l.037.487h.023c.182-.37.523-.556.966-.556.454 0 .765.204.924.616h.009a1.38 1.38 0 0 1 .392-.421c.199-.126.424-.195.684-.195.291 0 .537.102.728.303.236.24.357.612.357 1.104v1.956zm-20.681 3.84c0-.527-.319-.784-.943-.788-.236 0-.413.018-.53.05v1.553h.517c.293 0 .52-.079.692-.227a.721.721 0 0 0 .264-.589zm.928 3.28h-.792c-.069-.133-.172-.5-.3-1.088-.06-.31-.159-.53-.29-.647-.128-.13-.32-.194-.567-.194h-.453v1.929h-.753v-4.517c.342-.062.74-.09 1.206-.09.63 0 1.094.115 1.385.36.279.216.409.518.409.9 0 .276-.088.536-.286.746a1.305 1.305 0 0 1-.595.407v.02c.319.113.538.421.67.909.106.38.163.646.21.783.059.25.115.402.156.482zm2.5-2a.934.934 0 0 0-.15-.563c-.126-.196-.329-.3-.596-.3a.714.714 0 0 0-.582.294 1.048 1.048 0 0 0-.223.568h1.55zm.715.193c0 .128-.015.237-.034.324h-2.232c.007.326.114.588.324.75.19.157.424.233.725.233.34 0 .636-.048.91-.153l.11.516c-.31.132-.68.202-1.12.202-.517 0-.922-.15-1.218-.452-.296-.305-.441-.706-.441-1.215 0-.5.134-.916.412-1.246.287-.355.68-.532 1.167-.532.48 0 .845.177 1.098.532.187.285.3.627.3 1.041zm2.685.862a.927.927 0 0 1-.34.731c-.23.185-.549.279-.947.279-.385 0-.705-.074-.971-.224l.158-.546c.256.149.532.22.827.22.372 0 .571-.134.571-.403a.437.437 0 0 0-.128-.314c-.084-.075-.233-.148-.443-.226-.593-.223-.895-.527-.895-.948 0-.28.112-.516.324-.713.223-.181.517-.28.88-.28.329 0 .609.066.841.198l-.158.518a1.38 1.38 0 0 0-.68-.182c-.156 0-.284.038-.366.109a.36.36 0 0 0-.131.278c0 .11.053.207.139.277.074.069.234.147.45.226.588.216.869.543.869 1zm2.686-1.056c0-.22-.05-.398-.151-.562-.134-.196-.32-.3-.593-.3-.237 0-.347.104-.508.294-.12.158-.194.348-.22.568h1.472zm.708.194c0 .128-.014.237-.025.324h-2.155c.007.326.122.588.324.75.132.157.344.233.643.233.337 0 .643-.048.908-.153l.115.516a2.864 2.864 0 0 1-1.12.202c-.454 0-.84-.15-1.133-.452-.298-.305-.443-.706-.443-1.215 0-.5.134-.916.408-1.246a1.392 1.392 0 0 1 1.086-.532c.479 0 .85.177 1.094.532.2.285.298.627.298 1.041zm1.433 1.807h-.75v-4.816h.75v4.816zm1.566 0h-.78v-4.816h.78v4.816zm2.98-2a1.034 1.034 0 0 0-.145-.563c-.13-.196-.323-.3-.593-.3a.737.737 0 0 0-.595.294 1.066 1.066 0 0 0-.22.568h1.553zm.662.193c0 .128-.006.237-.022.324h-2.193c.01.326.118.588.321.75.182.157.436.233.732.233.333 0 .638-.048.9-.153l.09.516c-.283.132-.657.202-1.085.202-.521 0-.933-.15-1.226-.452-.298-.305-.437-.706-.437-1.215 0-.5.133-.916.403-1.246.287-.355.68-.532 1.17-.532.482 0 .846.177 1.1.532.143.285.247.627.247 1.041zm2.46-.851c-.073-.01-.146-.022-.228-.022-.257 0-.46.093-.595.3-.122.163-.19.38-.19.648v1.732h-.75v-2.268c0-.372-.002-.719-.022-1.035h.642l.035.627h.013a1.13 1.13 0 0 1 .372-.518.934.934 0 0 1 .53-.174c.085 0 .14.004.192.014v.696zM102.96 2.574c.568-.668.933-1.614.834-2.53-.815.03-1.795.527-2.342 1.21-.537.596-.897 1.534-.775 2.43.817.072 1.714-.438 2.284-1.11zm4.15 8.976c-.013.059-.328 1.125-1.075 2.255-.681.978-1.398 1.914-2.457 1.941-1.09.011-1.439-.606-2.656-.606-1.135 0-1.52.58-2.525.617-1.046.043-1.833-1.008-2.523-1.99-1.362-1.968-2.402-5.49-1.01-7.821.705-1.197 1.954-1.96 3.309-1.967 1.032-.033 1.999.675 2.605.675.58 0 1.742-.851 3.006-.725.492.018 1.991.21 2.91 1.568-.072.04-1.758 1.003-1.737 2.91.023 2.39 2.133 3.14 2.153 3.143zM4.948 10.936H.13v15.546h4.818V10.936zM2.57 4.196C1.017 4.197.003 5.246.003 6.614c0 1.335.983 2.416 2.504 2.416 1.616 0 2.6-1.081 2.6-2.416-.033-1.368-.984-2.416-2.537-2.416zm6.404 22.288h4.785V18.79c.444.095 1.015.126 1.649.126 2.852 0 5.293-.73 6.941-2.257 1.3-1.175 1.965-2.99 1.965-5.087 0-2.098-.887-3.878-2.283-4.959-1.426-1.145-3.548-1.717-6.528-1.717-2.948 0-5.04.19-6.53.445v21.143zm4.785-17.742c.35-.094 1.015-.158 1.966-.158 2.44 0 3.803 1.176 3.803 3.147 0 2.162-1.585 3.466-4.152 3.466-.73 0-1.205-.031-1.617-.128V8.742zm20.128 1.812c-5.009 0-8.305 3.212-8.305 8.267 0 5.022 3.487 8.012 8.019 8.012 4.153 0 8.178-2.607 8.178-8.297 0-4.706-3.17-7.982-7.892-7.982zm-.159 3.467c2.187 0 3.074 2.352 3.074 4.64 0 2.83-1.172 4.706-3.074 4.706-2.06 0-3.169-2.003-3.169-4.673 0-2.289.887-4.673 3.17-4.673zm11.03 12.463h4.818v-7.885c0-.381.032-.763.095-1.08.317-1.495 1.521-2.45 3.296-2.45.54 0 .92.065 1.3.128V10.65a4.78 4.78 0 0 0-1.014-.096c-1.521 0-3.391.955-4.184 3.244h-.127l-.19-2.862h-4.12c.095 1.336.126 2.83.126 5.119v10.429zm13.376-18.44v2.892h-2.06v3.561h2.06v6.358c0 2.195.444 3.688 1.33 4.61.794.795 2.093 1.336 3.646 1.336 1.331 0 2.505-.19 3.106-.413l-.031-3.656c-.444.095-.761.126-1.427.126-1.426 0-1.901-.857-1.901-2.733v-5.628h3.455v-3.56h-3.455V6.74l-4.723 1.303zm8.401-1.059h.246c.288 0 .425.11.466.345.069.275.11.467.179.55h.548c-.04-.083-.095-.206-.165-.55-.068-.304-.177-.483-.397-.552V6.75c.26-.081.467-.261.467-.536a.571.571 0 0 0-.234-.483c-.15-.11-.343-.179-.768-.179-.37 0-.658.042-.863.068v2.26h.52v-.895zm.013-1.02c.055-.014.152-.027.288-.027.33 0 .48.137.48.345 0 .233-.233.33-.521.33h-.247v-.648zm.357-1.515c-1.303 0-2.331.992-2.331 2.26 0 1.267 1.028 2.272 2.317 2.272 1.289 0 2.304-1.005 2.304-2.272 0-1.268-1.015-2.26-2.29-2.26zm-.028.454c1.002 0 1.742.814 1.742 1.82 0 .99-.74 1.803-1.714 1.79-1.001 0-1.756-.8-1.756-1.804 0-.992.755-1.806 1.728-1.806z" fill="#FFF"/></svg>