<svg width="428" height="350" xmlns="http://www.w3.org/2000/svg"><path d="M104.5 291.5h2c17.5 0 25-7.5 25-25v-183c0-17.5-7.5-25-25-25h-2V0c65 0 92 25 92 82.5v184c0 58.5-26.5 83.5-92 83.5v-58.5zm-14.5 0h2V350c-65.5 0-92-25-92-83.5v-183C0 25 27 0 92 0v58.5h-2c-17.5 0-25 7.5-25 25v183c0 17.5 7.5 25 25 25zM294.5 91h-63v-8c0-58 26-83 90-83v58.5c-20 0-27 7.5-27 25V91zM426 82.5v22c0 44-27 69-56.5 91.5-35 26.5-73 49.5-73 95v59h-65v-59c0-51 29-83.5 59.5-108.5 34-28 70-46.5 70-69v-30c0-17.5-5.5-25-27-25V0c65 0 92 25 92 82.5zm2 209V350H309v-58.5h119z" fill="#EAEAEA" fill-rule="evenodd"/></svg>