<svg width="428" height="350" xmlns="http://www.w3.org/2000/svg"><path d="M104.5 291.5h2c17.5 0 25-7.5 25-25v-183c0-17.5-7.5-25-25-25h-2V0c65 0 92 25 92 82.5v184c0 58.5-26.5 83.5-92 83.5v-58.5zm-14.5 0h2V350c-65.5 0-92-25-92-83.5v-183C0 25 27 0 92 0v58.5h-2c-17.5 0-25 7.5-25 25v183c0 17.5 7.5 25 25 25zM304 142h32.5c17.5 0 26.5-7.5 26.5-25V83.5c0-17.5-5.5-25-23-25h-4V0c66 0 92 26 92 82.5V95c0 40-13.5 61.5-33 72v1c19.5 10 33 32 33 71v27.5c0 58.5-26.5 83.5-92 83.5v-58.5h4c17.5 0 23-7.5 23-25v-41c0-17.5-9-25-26.5-25H304V142zm-7.5-51h-65v-8c0-58 26-83 92-83v58.5H321c-17.5 0-24.5 7.5-24.5 25V91zm-65 158h65v17.5c0 17.5 7 25 24.5 25h2.5V350c-65.5 0-92-25-92-83.5V249z" fill="#c82f47" fill-rule="evenodd"/></svg>