<svg width="456" height="350" xmlns="http://www.w3.org/2000/svg"><path d="M104.615 291.5h2.002c17.52 0 25.027-7.5 25.027-25v-183c0-17.5-7.508-25-25.027-25h-2.002V0c65.071 0 92.1 25 92.1 82.5v184c0 58.5-26.528 83.5-92.1 83.5v-58.5zm-14.516 0H92.1V350C26.529 350 0 325 0 266.5v-183C0 25 27.03 0 92.101 0v58.5h-2.002c-17.52 0-25.028 7.5-25.028 25v183c0 17.5 7.509 25 25.028 25zM365.4 350V0h65.071v233H456v58.5h-25.528V350h-65.071zm-138.652-58.5L345.879 0h7.008v143l-37.04 90h37.04v58.5H226.749z" fill="#3D3278" fill-rule="evenodd"/></svg>