<svg width="434" height="350" xmlns="http://www.w3.org/2000/svg"><path d="M104.62 291.5h2.003c17.52 0 25.029-7.5 25.029-25v-183c0-17.5-7.509-25-25.03-25h-2.001V0c65.075 0 92.106 25 92.106 82.5v184c0 58.5-26.53 83.5-92.106 83.5v-58.5zm-14.516 0h2.002V350C26.531 350 0 325 0 266.5v-183C0 25 27.031 0 92.106 0v58.5h-2.002c-17.52 0-25.029 7.5-25.029 25v183c0 17.5 7.509 25 25.029 25zm251.79 0c20.023 0 27.031-7.5 27.031-25v-57c0-17.5-7.008-25-27.031-25V126C406.969 126 434 151 434 208v58.5c0 58.5-26.53 83.5-92.106 83.5v-58.5zm-12.515-233h-21.024l-3.504 67.5h24.528v58.5h-89.603L249.788 0h79.591v58.5zM237.273 239h65.075v27.5c0 17.5 7.008 25 27.031 25V350c-65.575 0-92.106-25-92.106-83.5V239zm104.62-180.5V0h82.596v58.5h-82.595z" fill="#EEE" fill-rule="evenodd"/></svg>