<svg width="433" height="350" xmlns="http://www.w3.org/2000/svg"><path d="M104.5 291.5h2c17.5 0 25-7.5 25-25v-183c0-17.5-7.5-25-25-25h-2V0c65 0 92 25 92 82.5v184c0 58.5-26.5 83.5-92 83.5v-58.5zm-14.5 0h2V350c-65.5 0-92-25-92-83.5v-183C0 25 27 0 92 0v58.5h-2c-17.5 0-25 7.5-25 25v183c0 17.5 7.5 25 25 25zM328.5 138v58.5h-27v70c0 17.5 7.5 25 27 25V350c-65.5 0-92-25-92-83.5v-183c0-58.5 27-83.5 92-83.5v58.5c-19.5 0-27 7.5-27 25V138h27zm12.5 58.5V138c65 0 92 25 92 82.5v46c0 58.5-26.5 83.5-92 83.5v-58.5c19.5 0 27-7.5 27-25v-45c0-17.5-7.5-25-27-25zm92-95.5h-65V83.5c0-17.5-7-25-27-25V0c65 0 92 25 92 82.5V101z" fill="#C82F47" fill-rule="evenodd"/></svg>