<svg width="425" height="350" xmlns="http://www.w3.org/2000/svg"><path d="M104.377 291.5h1.998c17.48 0 24.97-7.5 24.97-25v-183c0-17.5-7.49-25-24.97-25h-1.998V0c64.924 0 91.892 25 91.892 82.5v184c0 58.5-26.469 83.5-91.892 83.5v-58.5zm-14.483 0h1.998V350C26.469 350 0 325 0 266.5v-183C0 25 26.968 0 91.892 0v58.5h-1.998c-17.48 0-24.97 7.5-24.97 25v183c0 17.5 7.49 25 24.97 25zM425 0L307.139 350h-65.423L359.577 0H425zM226.234 58.5V0h120.858l-19.977 58.5H226.234z" fill="#3D3278" fill-rule="evenodd"/></svg>