<svg width="1718" height="440" xmlns="http://www.w3.org/2000/svg"><g fill="none" fill-rule="evenodd"><path fill="#009CDE" d="M.933.348h1716.16v438.275H.932z"/><path d="M30.836 26.358H47.52v387.555H30.836V26.358zm355.126 0h16.684v387.555h-16.684V26.358zm-177.563 0h16.684v387.555h-16.684V26.358zm353.935 0h16.683v387.555h-16.683V26.358zm-443.312 0h16.683v387.555h-16.683V26.358zm355.126 0h16.684v387.555h-16.684V26.358zm-177.563 0h16.684v387.555h-16.684V26.358zm355.126 0h16.684v387.555H651.71V26.358zm132.279 0h16.683v387.555H783.99V26.358zm-709.061 0h16.684v387.555H74.929V26.358zm355.126 0h16.684v387.555h-16.684V26.358zm-177.563 0h16.684v387.555h-16.684V26.358zm355.126 0h16.684v387.555h-16.684V26.358zm132.279 0h16.683v387.555h-16.683V26.358zm-575.59 0h16.683v387.555h-16.684V26.358zm353.934 0h16.684v387.555H518.24V26.358zm-177.563 0h16.683v387.555h-16.683V26.358zm355.126 0h16.684v387.555h-16.684V26.358zm133.47 0h16.684v387.555h-16.684V26.358zm44.093 0h16.684v387.555h-16.684V26.358zm355.126 0h16.684v387.555h-16.684V26.358zm-177.563 0h16.684v387.555h-16.684V26.358zm353.935 0h16.683v387.555h-16.683V26.358zm-443.312 0h16.683v387.555h-16.683V26.358zm355.126 0h16.684v387.555h-16.684V26.358zm-177.563 0h16.684v387.555h-16.684V26.358zm355.126 0h16.684v387.555h-16.684V26.358zm132.279 0h16.683v387.555h-16.683V26.358zm-709.061 0h16.684v387.555H917.46V26.358zm355.126 0h16.684v387.555h-16.684V26.358zm-177.563 0h16.684v387.555h-16.684V26.358zm355.126 0h16.684v387.555h-16.684V26.358zm132.279 0h16.684v387.555h-16.684V26.358zm-575.59 0h16.683v387.555h-16.684V26.358zm353.934 0h16.684v387.555h-16.684V26.358zm-177.563 0h16.683v387.555h-16.683V26.358zm355.126 0h16.684v387.555h-16.684V26.358zm133.47 0h16.684v387.555h-16.684V26.358z" fill="#3F3F3E" opacity=".203"/></g></svg>